<svg width="432" height="32" viewBox="0 0 432 32" fill="none" xmlns="http://www.w3.org/2000/svg">
  <line x1="414.354" y1="7.64645" x2="430.866" y2="24.1589" stroke="#FF0000" />
  <line x1="430.866" y1="8.35355" x2="414.354" y2="24.866" stroke="#FF0000" />
  <rect x="0.5" y="0.5" width="402" height="31" fill="white" stroke="#777777" />
  <path
    d="M14.2109 16.7109L12.8203 18.1562V22H11.3203V10.625H12.8203V16.25L17.875 10.625H19.6875L15.2109 15.6484L20.0391 22H18.2422L14.2109 16.7109ZM24.4297 22.1562C23.2839 22.1562 22.3516 21.7812 21.6328 21.0312C20.9141 20.276 20.5547 19.2682 20.5547 18.0078V17.7422C20.5547 16.9036 20.7135 16.1562 21.0312 15.5C21.3542 14.8385 21.8021 14.3229 22.375 13.9531C22.9531 13.5781 23.5781 13.3906 24.25 13.3906C25.349 13.3906 26.2031 13.7526 26.8125 14.4766C27.4219 15.2005 27.7266 16.237 27.7266 17.5859V18.1875H22C22.0208 19.0208 22.263 19.6953 22.7266 20.2109C23.1953 20.7214 23.7891 20.9766 24.5078 20.9766C25.0182 20.9766 25.4505 20.8724 25.8047 20.6641C26.1589 20.4557 26.4688 20.1797 26.7344 19.8359L27.6172 20.5234C26.9089 21.612 25.8464 22.1562 24.4297 22.1562ZM24.25 14.5781C23.6667 14.5781 23.1771 14.7917 22.7812 15.2188C22.3854 15.6406 22.1406 16.2344 22.0469 17H26.2812V16.8906C26.2396 16.1562 26.0417 15.5885 25.6875 15.1875C25.3333 14.7812 24.8542 14.5781 24.25 14.5781ZM32.0859 20.0391L34.1797 13.5469H35.6562L32.625 22H31.5234L28.4609 13.5469H29.9375L32.0859 20.0391ZM38.6172 22H37.1719V13.5469H38.6172V22ZM37.0547 11.3047C37.0547 11.0703 37.125 10.8724 37.2656 10.7109C37.4115 10.5495 37.625 10.4688 37.9062 10.4688C38.1875 10.4688 38.401 10.5495 38.5469 10.7109C38.6927 10.8724 38.7656 11.0703 38.7656 11.3047C38.7656 11.5391 38.6927 11.7344 38.5469 11.8906C38.401 12.0469 38.1875 12.125 37.9062 12.125C37.625 12.125 37.4115 12.0469 37.2656 11.8906C37.125 11.7344 37.0547 11.5391 37.0547 11.3047ZM42.3047 13.5469L42.3516 14.6094C42.9974 13.7969 43.8411 13.3906 44.8828 13.3906C46.6693 13.3906 47.5703 14.3984 47.5859 16.4141V22H46.1406V16.4062C46.1354 15.7969 45.9948 15.3464 45.7188 15.0547C45.4479 14.763 45.0234 14.6172 44.4453 14.6172C43.9766 14.6172 43.5651 14.7422 43.2109 14.9922C42.8568 15.2422 42.5807 15.5703 42.3828 15.9766V22H40.9375V13.5469H42.3047ZM49.7969 21.2422C49.7969 20.9922 49.8698 20.7839 50.0156 20.6172C50.1667 20.4505 50.3906 20.3672 50.6875 20.3672C50.9844 20.3672 51.2083 20.4505 51.3594 20.6172C51.5156 20.7839 51.5938 20.9922 51.5938 21.2422C51.5938 21.4818 51.5156 21.6823 51.3594 21.8438C51.2083 22.0052 50.9844 22.0859 50.6875 22.0859C50.3906 22.0859 50.1667 22.0052 50.0156 21.8438C49.8698 21.6823 49.7969 21.4818 49.7969 21.2422ZM54.2109 22V10.625H57.9297C59.1641 10.625 60.0911 10.8802 60.7109 11.3906C61.3359 11.901 61.6484 12.6562 61.6484 13.6562C61.6484 14.1875 61.4974 14.6589 61.1953 15.0703C60.8932 15.4766 60.4818 15.7917 59.9609 16.0156C60.5755 16.1875 61.0599 16.5156 61.4141 17C61.7734 17.4792 61.9531 18.0521 61.9531 18.7188C61.9531 19.7396 61.6224 20.5417 60.9609 21.125C60.2995 21.7083 59.3646 22 58.1562 22H54.2109ZM55.7109 16.6797V20.7734H58.1875C58.8854 20.7734 59.4349 20.5938 59.8359 20.2344C60.2422 19.8698 60.4453 19.3698 60.4453 18.7344C60.4453 17.3646 59.7005 16.6797 58.2109 16.6797H55.7109ZM55.7109 15.4766H57.9766C58.6328 15.4766 59.1562 15.3125 59.5469 14.9844C59.9427 14.6562 60.1406 14.2109 60.1406 13.6484C60.1406 13.0234 59.9583 12.5703 59.5938 12.2891C59.2292 12.0026 58.6745 11.8594 57.9297 11.8594H55.7109V15.4766ZM66.7188 19.8828L68.6875 13.5469H70.2344L66.8359 23.3047C66.3099 24.7109 65.474 25.4141 64.3281 25.4141L64.0547 25.3906L63.5156 25.2891V24.1172L63.9062 24.1484C64.3958 24.1484 64.776 24.0495 65.0469 23.8516C65.3229 23.6536 65.5495 23.2917 65.7266 22.7656L66.0469 21.9062L63.0312 13.5469H64.6094L66.7188 19.8828ZM75.6172 14.8438C75.3984 14.8073 75.1615 14.7891 74.9062 14.7891C73.9583 14.7891 73.3151 15.1927 72.9766 16V22H71.5312V13.5469H72.9375L72.9609 14.5234C73.4349 13.7682 74.1068 13.3906 74.9766 13.3906C75.2578 13.3906 75.4714 13.4271 75.6172 13.5V14.8438ZM78.3203 13.5469L78.3672 14.6094C79.013 13.7969 79.8568 13.3906 80.8984 13.3906C82.6849 13.3906 83.5859 14.3984 83.6016 16.4141V22H82.1562V16.4062C82.151 15.7969 82.0104 15.3464 81.7344 15.0547C81.4635 14.763 81.0391 14.6172 80.4609 14.6172C79.9922 14.6172 79.5807 14.7422 79.2266 14.9922C78.8724 15.2422 78.5964 15.5703 78.3984 15.9766V22H76.9531V13.5469H78.3203ZM89.2891 22.1562C88.1432 22.1562 87.2109 21.7812 86.4922 21.0312C85.7734 20.276 85.4141 19.2682 85.4141 18.0078V17.7422C85.4141 16.9036 85.5729 16.1562 85.8906 15.5C86.2135 14.8385 86.6615 14.3229 87.2344 13.9531C87.8125 13.5781 88.4375 13.3906 89.1094 13.3906C90.2083 13.3906 91.0625 13.7526 91.6719 14.4766C92.2812 15.2005 92.5859 16.237 92.5859 17.5859V18.1875H86.8594C86.8802 19.0208 87.1224 19.6953 87.5859 20.2109C88.0547 20.7214 88.6484 20.9766 89.3672 20.9766C89.8776 20.9766 90.3099 20.8724 90.6641 20.6641C91.0182 20.4557 91.3281 20.1797 91.5938 19.8359L92.4766 20.5234C91.7682 21.612 90.7057 22.1562 89.2891 22.1562ZM89.1094 14.5781C88.526 14.5781 88.0365 14.7917 87.6406 15.2188C87.2448 15.6406 87 16.2344 86.9062 17H91.1406V16.8906C91.099 16.1562 90.901 15.5885 90.5469 15.1875C90.1927 14.7812 89.7135 14.5781 89.1094 14.5781ZM106.75 18.0781C106.688 19.3385 106.375 20.3333 105.812 21.0625C105.25 21.7917 104.497 22.1562 103.555 22.1562C102.581 22.1562 101.956 21.7188 101.68 20.8438C101.398 21.2865 101.076 21.6172 100.711 21.8359C100.352 22.0495 99.9792 22.1562 99.5938 22.1562C98.8542 22.1562 98.2943 21.8542 97.9141 21.25C97.5339 20.6458 97.3932 19.8099 97.4922 18.7422C97.5703 17.8828 97.7656 17.1172 98.0781 16.4453C98.3958 15.7682 98.8021 15.237 99.2969 14.8516C99.7969 14.4661 100.32 14.2734 100.867 14.2734C101.289 14.2734 101.667 14.3307 102 14.4453C102.333 14.5547 102.708 14.7734 103.125 15.1016L102.719 19.4297C102.62 20.6328 102.953 21.2344 103.719 21.2344C104.307 21.2344 104.784 20.9427 105.148 20.3594C105.513 19.776 105.711 19.0156 105.742 18.0781C105.841 16.0521 105.464 14.5078 104.609 13.4453C103.76 12.3828 102.466 11.8516 100.727 11.8516C99.6797 11.8516 98.75 12.112 97.9375 12.6328C97.125 13.1484 96.4844 13.8958 96.0156 14.875C95.5469 15.8542 95.2839 16.9844 95.2266 18.2656C95.1641 19.5573 95.3203 20.6797 95.6953 21.6328C96.0703 22.5807 96.6406 23.3047 97.4062 23.8047C98.1771 24.3099 99.1068 24.5625 100.195 24.5625C100.664 24.5625 101.133 24.5052 101.602 24.3906C102.076 24.276 102.469 24.1276 102.781 23.9453L103.07 24.8438C102.747 25.0469 102.318 25.2135 101.781 25.3438C101.25 25.474 100.711 25.5391 100.164 25.5391C98.862 25.5391 97.7422 25.2448 96.8047 24.6562C95.8672 24.0729 95.1641 23.2292 94.6953 22.125C94.2318 21.026 94.0312 19.7396 94.0938 18.2656C94.1562 16.8333 94.4766 15.5469 95.0547 14.4062C95.6328 13.2604 96.4167 12.3776 97.4062 11.7578C98.3958 11.1328 99.513 10.8203 100.758 10.8203C102.055 10.8203 103.167 11.112 104.094 11.6953C105.021 12.2786 105.711 13.1198 106.164 14.2188C106.617 15.3177 106.812 16.6042 106.75 18.0781ZM98.7344 18.7422C98.6615 19.4818 98.7292 20.0495 98.9375 20.4453C99.151 20.8411 99.487 21.0391 99.9453 21.0391C100.258 21.0391 100.557 20.9062 100.844 20.6406C101.135 20.375 101.375 19.9948 101.562 19.5L101.57 19.4297L101.93 15.5C101.638 15.349 101.326 15.2734 100.992 15.2734C100.383 15.2734 99.8776 15.5833 99.4766 16.2031C99.0807 16.8229 98.8333 17.6693 98.7344 18.7422ZM108.297 17.7031C108.297 16.3854 108.602 15.3385 109.211 14.5625C109.82 13.7812 110.628 13.3906 111.633 13.3906C112.664 13.3906 113.469 13.7552 114.047 14.4844L114.117 13.5469H115.438V21.7969C115.438 22.8906 115.112 23.7526 114.461 24.3828C113.815 25.013 112.945 25.3281 111.852 25.3281C111.242 25.3281 110.646 25.1979 110.062 24.9375C109.479 24.6771 109.034 24.3203 108.727 23.8672L109.477 23C110.096 23.7656 110.854 24.1484 111.75 24.1484C112.453 24.1484 113 23.9505 113.391 23.5547C113.786 23.1589 113.984 22.6016 113.984 21.8828V21.1562C113.406 21.8229 112.617 22.1562 111.617 22.1562C110.628 22.1562 109.826 21.7578 109.211 20.9609C108.602 20.1641 108.297 19.0781 108.297 17.7031ZM109.75 17.8672C109.75 18.8203 109.945 19.5703 110.336 20.1172C110.727 20.6589 111.273 20.9297 111.977 20.9297C112.888 20.9297 113.557 20.5156 113.984 19.6875V15.8281C113.542 15.0208 112.878 14.6172 111.992 14.6172C111.289 14.6172 110.74 14.8906 110.344 15.4375C109.948 15.9844 109.75 16.7943 109.75 17.8672ZM118.984 13.5469L119.023 14.4844C119.643 13.7552 120.479 13.3906 121.531 13.3906C122.714 13.3906 123.518 13.8438 123.945 14.75C124.227 14.3438 124.591 14.0156 125.039 13.7656C125.492 13.5156 126.026 13.3906 126.641 13.3906C128.495 13.3906 129.438 14.3724 129.469 16.3359V22H128.023V16.4219C128.023 15.8177 127.885 15.3672 127.609 15.0703C127.333 14.7682 126.87 14.6172 126.219 14.6172C125.682 14.6172 125.237 14.7786 124.883 15.1016C124.529 15.4193 124.323 15.849 124.266 16.3906V22H122.812V16.4609C122.812 15.2318 122.211 14.6172 121.008 14.6172C120.06 14.6172 119.411 15.0208 119.062 15.8281V22H117.617V13.5469H118.984ZM136.875 22C136.792 21.8333 136.724 21.5365 136.672 21.1094C136 21.8073 135.198 22.1562 134.266 22.1562C133.432 22.1562 132.747 21.9219 132.211 21.4531C131.68 20.9792 131.414 20.3802 131.414 19.6562C131.414 18.776 131.747 18.0938 132.414 17.6094C133.086 17.1198 134.029 16.875 135.242 16.875H136.648V16.2109C136.648 15.7057 136.497 15.3047 136.195 15.0078C135.893 14.7057 135.448 14.5547 134.859 14.5547C134.344 14.5547 133.911 14.6849 133.562 14.9453C133.214 15.2057 133.039 15.5208 133.039 15.8906H131.586C131.586 15.4688 131.734 15.0625 132.031 14.6719C132.333 14.276 132.74 13.9635 133.25 13.7344C133.766 13.5052 134.331 13.3906 134.945 13.3906C135.919 13.3906 136.682 13.6354 137.234 14.125C137.786 14.6094 138.073 15.2786 138.094 16.1328V20.0234C138.094 20.7995 138.193 21.4167 138.391 21.875V22H136.875ZM134.477 20.8984C134.93 20.8984 135.359 20.7812 135.766 20.5469C136.172 20.3125 136.466 20.0078 136.648 19.6328V17.8984H135.516C133.745 17.8984 132.859 18.4167 132.859 19.4531C132.859 19.9062 133.01 20.2604 133.312 20.5156C133.615 20.7708 134.003 20.8984 134.477 20.8984ZM141.93 22H140.484V13.5469H141.93V22ZM140.367 11.3047C140.367 11.0703 140.438 10.8724 140.578 10.7109C140.724 10.5495 140.938 10.4688 141.219 10.4688C141.5 10.4688 141.714 10.5495 141.859 10.7109C142.005 10.8724 142.078 11.0703 142.078 11.3047C142.078 11.5391 142.005 11.7344 141.859 11.8906C141.714 12.0469 141.5 12.125 141.219 12.125C140.938 12.125 140.724 12.0469 140.578 11.8906C140.438 11.7344 140.367 11.5391 140.367 11.3047ZM145.82 22H144.375V10H145.82V22ZM148.172 21.2422C148.172 20.9922 148.245 20.7839 148.391 20.6172C148.542 20.4505 148.766 20.3672 149.062 20.3672C149.359 20.3672 149.583 20.4505 149.734 20.6172C149.891 20.7839 149.969 20.9922 149.969 21.2422C149.969 21.4818 149.891 21.6823 149.734 21.8438C149.583 22.0052 149.359 22.0859 149.062 22.0859C148.766 22.0859 148.542 22.0052 148.391 21.8438C148.245 21.6823 148.172 21.4818 148.172 21.2422ZM155.75 20.9766C156.266 20.9766 156.716 20.8203 157.102 20.5078C157.487 20.1953 157.701 19.8047 157.742 19.3359H159.109C159.083 19.8203 158.917 20.2812 158.609 20.7188C158.302 21.1562 157.891 21.5052 157.375 21.7656C156.865 22.026 156.323 22.1562 155.75 22.1562C154.599 22.1562 153.682 21.7734 153 21.0078C152.323 20.237 151.984 19.1849 151.984 17.8516V17.6094C151.984 16.7865 152.135 16.0547 152.438 15.4141C152.74 14.7734 153.172 14.276 153.734 13.9219C154.302 13.5677 154.971 13.3906 155.742 13.3906C156.69 13.3906 157.477 13.6745 158.102 14.2422C158.732 14.8099 159.068 15.5469 159.109 16.4531H157.742C157.701 15.9062 157.492 15.4583 157.117 15.1094C156.747 14.7552 156.289 14.5781 155.742 14.5781C155.008 14.5781 154.438 14.8438 154.031 15.375C153.63 15.901 153.43 16.6641 153.43 17.6641V17.9375C153.43 18.9115 153.63 19.6615 154.031 20.1875C154.432 20.7135 155.005 20.9766 155.75 20.9766ZM160.352 17.6953C160.352 16.8672 160.513 16.1224 160.836 15.4609C161.164 14.7995 161.617 14.2891 162.195 13.9297C162.779 13.5703 163.443 13.3906 164.188 13.3906C165.339 13.3906 166.268 13.7891 166.977 14.5859C167.69 15.3828 168.047 16.4427 168.047 17.7656V17.8672C168.047 18.6901 167.888 19.4297 167.57 20.0859C167.258 20.737 166.807 21.2448 166.219 21.6094C165.635 21.974 164.964 22.1562 164.203 22.1562C163.057 22.1562 162.128 21.7578 161.414 20.9609C160.706 20.1641 160.352 19.1094 160.352 17.7969V17.6953ZM161.805 17.8672C161.805 18.8047 162.021 19.5573 162.453 20.125C162.891 20.6927 163.474 20.9766 164.203 20.9766C164.938 20.9766 165.521 20.6901 165.953 20.1172C166.385 19.5391 166.602 18.7318 166.602 17.6953C166.602 16.7682 166.38 16.0182 165.938 15.4453C165.5 14.8672 164.917 14.5781 164.188 14.5781C163.474 14.5781 162.898 14.862 162.461 15.4297C162.023 15.9974 161.805 16.8099 161.805 17.8672ZM171.219 13.5469L171.258 14.4844C171.878 13.7552 172.714 13.3906 173.766 13.3906C174.948 13.3906 175.753 13.8438 176.18 14.75C176.461 14.3438 176.826 14.0156 177.273 13.7656C177.727 13.5156 178.26 13.3906 178.875 13.3906C180.729 13.3906 181.672 14.3724 181.703 16.3359V22H180.258V16.4219C180.258 15.8177 180.12 15.3672 179.844 15.0703C179.568 14.7682 179.104 14.6172 178.453 14.6172C177.917 14.6172 177.471 14.7786 177.117 15.1016C176.763 15.4193 176.557 15.849 176.5 16.3906V22H175.047V16.4609C175.047 15.2318 174.445 14.6172 173.242 14.6172C172.294 14.6172 171.646 15.0208 171.297 15.8281V22H169.852V13.5469H171.219ZM183.844 24.2656L183.023 23.7031C183.513 23.0208 183.768 22.3177 183.789 21.5938V20.2891H185.203V21.4219C185.203 21.9479 185.073 22.474 184.812 23C184.557 23.526 184.234 23.9479 183.844 24.2656ZM195.992 10.625H197.5V18.6797C197.5 19.7682 197.172 20.6198 196.516 21.2344C195.865 21.849 194.995 22.1562 193.906 22.1562C192.776 22.1562 191.896 21.8672 191.266 21.2891C190.635 20.7109 190.32 19.901 190.32 18.8594H191.82C191.82 19.5104 191.997 20.0182 192.352 20.3828C192.711 20.7474 193.229 20.9297 193.906 20.9297C194.526 20.9297 195.026 20.7344 195.406 20.3438C195.792 19.9531 195.987 19.4062 195.992 18.7031V10.625ZM205.047 22C204.964 21.8333 204.896 21.5365 204.844 21.1094C204.172 21.8073 203.37 22.1562 202.438 22.1562C201.604 22.1562 200.919 21.9219 200.383 21.4531C199.852 20.9792 199.586 20.3802 199.586 19.6562C199.586 18.776 199.919 18.0938 200.586 17.6094C201.258 17.1198 202.201 16.875 203.414 16.875H204.82V16.2109C204.82 15.7057 204.669 15.3047 204.367 15.0078C204.065 14.7057 203.62 14.5547 203.031 14.5547C202.516 14.5547 202.083 14.6849 201.734 14.9453C201.385 15.2057 201.211 15.5208 201.211 15.8906H199.758C199.758 15.4688 199.906 15.0625 200.203 14.6719C200.505 14.276 200.911 13.9635 201.422 13.7344C201.938 13.5052 202.503 13.3906 203.117 13.3906C204.091 13.3906 204.854 13.6354 205.406 14.125C205.958 14.6094 206.245 15.2786 206.266 16.1328V20.0234C206.266 20.7995 206.365 21.4167 206.562 21.875V22H205.047ZM202.648 20.8984C203.102 20.8984 203.531 20.7812 203.938 20.5469C204.344 20.3125 204.638 20.0078 204.82 19.6328V17.8984H203.688C201.917 17.8984 201.031 18.4167 201.031 19.4531C201.031 19.9062 201.182 20.2604 201.484 20.5156C201.786 20.7708 202.174 20.8984 202.648 20.8984ZM209.898 13.5469L209.945 14.6094C210.591 13.7969 211.435 13.3906 212.477 13.3906C214.263 13.3906 215.164 14.3984 215.18 16.4141V22H213.734V16.4062C213.729 15.7969 213.589 15.3464 213.312 15.0547C213.042 14.763 212.617 14.6172 212.039 14.6172C211.57 14.6172 211.159 14.7422 210.805 14.9922C210.451 15.2422 210.174 15.5703 209.977 15.9766V22H208.531V13.5469H209.898ZM220.867 22.1562C219.721 22.1562 218.789 21.7812 218.07 21.0312C217.352 20.276 216.992 19.2682 216.992 18.0078V17.7422C216.992 16.9036 217.151 16.1562 217.469 15.5C217.792 14.8385 218.24 14.3229 218.812 13.9531C219.391 13.5781 220.016 13.3906 220.688 13.3906C221.786 13.3906 222.641 13.7526 223.25 14.4766C223.859 15.2005 224.164 16.237 224.164 17.5859V18.1875H218.438C218.458 19.0208 218.701 19.6953 219.164 20.2109C219.633 20.7214 220.227 20.9766 220.945 20.9766C221.456 20.9766 221.888 20.8724 222.242 20.6641C222.596 20.4557 222.906 20.1797 223.172 19.8359L224.055 20.5234C223.346 21.612 222.284 22.1562 220.867 22.1562ZM220.688 14.5781C220.104 14.5781 219.615 14.7917 219.219 15.2188C218.823 15.6406 218.578 16.2344 218.484 17H222.719V16.8906C222.677 16.1562 222.479 15.5885 222.125 15.1875C221.771 14.7812 221.292 14.5781 220.688 14.5781ZM225.875 21.2422C225.875 20.9922 225.948 20.7839 226.094 20.6172C226.245 20.4505 226.469 20.3672 226.766 20.3672C227.062 20.3672 227.286 20.4505 227.438 20.6172C227.594 20.7839 227.672 20.9922 227.672 21.2422C227.672 21.4818 227.594 21.6823 227.438 21.8438C227.286 22.0052 227.062 22.0859 226.766 22.0859C226.469 22.0859 226.245 22.0052 226.094 21.8438C225.948 21.6823 225.875 21.4818 225.875 21.2422ZM230.289 22V10.625H233.5C234.49 10.625 235.365 10.8438 236.125 11.2812C236.885 11.7188 237.471 12.3411 237.883 13.1484C238.299 13.9557 238.51 14.8828 238.516 15.9297V16.6562C238.516 17.7292 238.307 18.6693 237.891 19.4766C237.479 20.2839 236.888 20.9036 236.117 21.3359C235.352 21.7682 234.458 21.9896 233.438 22H230.289ZM231.789 11.8594V20.7734H233.367C234.523 20.7734 235.422 20.4141 236.062 19.6953C236.708 18.9766 237.031 17.9531 237.031 16.625V15.9609C237.031 14.6693 236.727 13.6667 236.117 12.9531C235.513 12.2344 234.654 11.8698 233.539 11.8594H231.789ZM240.18 17.6953C240.18 16.8672 240.341 16.1224 240.664 15.4609C240.992 14.7995 241.445 14.2891 242.023 13.9297C242.607 13.5703 243.271 13.3906 244.016 13.3906C245.167 13.3906 246.096 13.7891 246.805 14.5859C247.518 15.3828 247.875 16.4427 247.875 17.7656V17.8672C247.875 18.6901 247.716 19.4297 247.398 20.0859C247.086 20.737 246.635 21.2448 246.047 21.6094C245.464 21.974 244.792 22.1562 244.031 22.1562C242.885 22.1562 241.956 21.7578 241.242 20.9609C240.534 20.1641 240.18 19.1094 240.18 17.7969V17.6953ZM241.633 17.8672C241.633 18.8047 241.849 19.5573 242.281 20.125C242.719 20.6927 243.302 20.9766 244.031 20.9766C244.766 20.9766 245.349 20.6901 245.781 20.1172C246.214 19.5391 246.43 18.7318 246.43 17.6953C246.43 16.7682 246.208 16.0182 245.766 15.4453C245.328 14.8672 244.745 14.5781 244.016 14.5781C243.302 14.5781 242.727 14.862 242.289 15.4297C241.852 15.9974 241.633 16.8099 241.633 17.8672ZM253.195 22.1562C252.049 22.1562 251.117 21.7812 250.398 21.0312C249.68 20.276 249.32 19.2682 249.32 18.0078V17.7422C249.32 16.9036 249.479 16.1562 249.797 15.5C250.12 14.8385 250.568 14.3229 251.141 13.9531C251.719 13.5781 252.344 13.3906 253.016 13.3906C254.115 13.3906 254.969 13.7526 255.578 14.4766C256.188 15.2005 256.492 16.237 256.492 17.5859V18.1875H250.766C250.786 19.0208 251.029 19.6953 251.492 20.2109C251.961 20.7214 252.555 20.9766 253.273 20.9766C253.784 20.9766 254.216 20.8724 254.57 20.6641C254.924 20.4557 255.234 20.1797 255.5 19.8359L256.383 20.5234C255.674 21.612 254.612 22.1562 253.195 22.1562ZM253.016 14.5781C252.432 14.5781 251.943 14.7917 251.547 15.2188C251.151 15.6406 250.906 16.2344 250.812 17H255.047V16.8906C255.005 16.1562 254.807 15.5885 254.453 15.1875C254.099 14.7812 253.62 14.5781 253.016 14.5781ZM270.656 18.0781C270.594 19.3385 270.281 20.3333 269.719 21.0625C269.156 21.7917 268.404 22.1562 267.461 22.1562C266.487 22.1562 265.862 21.7188 265.586 20.8438C265.305 21.2865 264.982 21.6172 264.617 21.8359C264.258 22.0495 263.885 22.1562 263.5 22.1562C262.76 22.1562 262.201 21.8542 261.82 21.25C261.44 20.6458 261.299 19.8099 261.398 18.7422C261.477 17.8828 261.672 17.1172 261.984 16.4453C262.302 15.7682 262.708 15.237 263.203 14.8516C263.703 14.4661 264.227 14.2734 264.773 14.2734C265.195 14.2734 265.573 14.3307 265.906 14.4453C266.24 14.5547 266.615 14.7734 267.031 15.1016L266.625 19.4297C266.526 20.6328 266.859 21.2344 267.625 21.2344C268.214 21.2344 268.69 20.9427 269.055 20.3594C269.419 19.776 269.617 19.0156 269.648 18.0781C269.747 16.0521 269.37 14.5078 268.516 13.4453C267.667 12.3828 266.372 11.8516 264.633 11.8516C263.586 11.8516 262.656 12.112 261.844 12.6328C261.031 13.1484 260.391 13.8958 259.922 14.875C259.453 15.8542 259.19 16.9844 259.133 18.2656C259.07 19.5573 259.227 20.6797 259.602 21.6328C259.977 22.5807 260.547 23.3047 261.312 23.8047C262.083 24.3099 263.013 24.5625 264.102 24.5625C264.57 24.5625 265.039 24.5052 265.508 24.3906C265.982 24.276 266.375 24.1276 266.688 23.9453L266.977 24.8438C266.654 25.0469 266.224 25.2135 265.688 25.3438C265.156 25.474 264.617 25.5391 264.07 25.5391C262.768 25.5391 261.648 25.2448 260.711 24.6562C259.773 24.0729 259.07 23.2292 258.602 22.125C258.138 21.026 257.938 19.7396 258 18.2656C258.062 16.8333 258.383 15.5469 258.961 14.4062C259.539 13.2604 260.323 12.3776 261.312 11.7578C262.302 11.1328 263.419 10.8203 264.664 10.8203C265.961 10.8203 267.073 11.112 268 11.6953C268.927 12.2786 269.617 13.1198 270.07 14.2188C270.523 15.3177 270.719 16.6042 270.656 18.0781ZM262.641 18.7422C262.568 19.4818 262.635 20.0495 262.844 20.4453C263.057 20.8411 263.393 21.0391 263.852 21.0391C264.164 21.0391 264.464 20.9062 264.75 20.6406C265.042 20.375 265.281 19.9948 265.469 19.5L265.477 19.4297L265.836 15.5C265.544 15.349 265.232 15.2734 264.898 15.2734C264.289 15.2734 263.784 15.5833 263.383 16.2031C262.987 16.8229 262.74 17.6693 262.641 18.7422ZM272.203 17.7031C272.203 16.3854 272.508 15.3385 273.117 14.5625C273.727 13.7812 274.534 13.3906 275.539 13.3906C276.57 13.3906 277.375 13.7552 277.953 14.4844L278.023 13.5469H279.344V21.7969C279.344 22.8906 279.018 23.7526 278.367 24.3828C277.721 25.013 276.852 25.3281 275.758 25.3281C275.148 25.3281 274.552 25.1979 273.969 24.9375C273.385 24.6771 272.94 24.3203 272.633 23.8672L273.383 23C274.003 23.7656 274.76 24.1484 275.656 24.1484C276.359 24.1484 276.906 23.9505 277.297 23.5547C277.693 23.1589 277.891 22.6016 277.891 21.8828V21.1562C277.312 21.8229 276.523 22.1562 275.523 22.1562C274.534 22.1562 273.732 21.7578 273.117 20.9609C272.508 20.1641 272.203 19.0781 272.203 17.7031ZM273.656 17.8672C273.656 18.8203 273.852 19.5703 274.242 20.1172C274.633 20.6589 275.18 20.9297 275.883 20.9297C276.794 20.9297 277.464 20.5156 277.891 19.6875V15.8281C277.448 15.0208 276.784 14.6172 275.898 14.6172C275.195 14.6172 274.646 14.8906 274.25 15.4375C273.854 15.9844 273.656 16.7943 273.656 17.8672ZM282.891 13.5469L282.93 14.4844C283.549 13.7552 284.385 13.3906 285.438 13.3906C286.62 13.3906 287.424 13.8438 287.852 14.75C288.133 14.3438 288.497 14.0156 288.945 13.7656C289.398 13.5156 289.932 13.3906 290.547 13.3906C292.401 13.3906 293.344 14.3724 293.375 16.3359V22H291.93V16.4219C291.93 15.8177 291.792 15.3672 291.516 15.0703C291.24 14.7682 290.776 14.6172 290.125 14.6172C289.589 14.6172 289.143 14.7786 288.789 15.1016C288.435 15.4193 288.229 15.849 288.172 16.3906V22H286.719V16.4609C286.719 15.2318 286.117 14.6172 284.914 14.6172C283.966 14.6172 283.318 15.0208 282.969 15.8281V22H281.523V13.5469H282.891ZM300.781 22C300.698 21.8333 300.63 21.5365 300.578 21.1094C299.906 21.8073 299.104 22.1562 298.172 22.1562C297.339 22.1562 296.654 21.9219 296.117 21.4531C295.586 20.9792 295.32 20.3802 295.32 19.6562C295.32 18.776 295.654 18.0938 296.32 17.6094C296.992 17.1198 297.935 16.875 299.148 16.875H300.555V16.2109C300.555 15.7057 300.404 15.3047 300.102 15.0078C299.799 14.7057 299.354 14.5547 298.766 14.5547C298.25 14.5547 297.818 14.6849 297.469 14.9453C297.12 15.2057 296.945 15.5208 296.945 15.8906H295.492C295.492 15.4688 295.641 15.0625 295.938 14.6719C296.24 14.276 296.646 13.9635 297.156 13.7344C297.672 13.5052 298.237 13.3906 298.852 13.3906C299.826 13.3906 300.589 13.6354 301.141 14.125C301.693 14.6094 301.979 15.2786 302 16.1328V20.0234C302 20.7995 302.099 21.4167 302.297 21.875V22H300.781ZM298.383 20.8984C298.836 20.8984 299.266 20.7812 299.672 20.5469C300.078 20.3125 300.372 20.0078 300.555 19.6328V17.8984H299.422C297.651 17.8984 296.766 18.4167 296.766 19.4531C296.766 19.9062 296.917 20.2604 297.219 20.5156C297.521 20.7708 297.909 20.8984 298.383 20.8984ZM305.836 22H304.391V13.5469H305.836V22ZM304.273 11.3047C304.273 11.0703 304.344 10.8724 304.484 10.7109C304.63 10.5495 304.844 10.4688 305.125 10.4688C305.406 10.4688 305.62 10.5495 305.766 10.7109C305.911 10.8724 305.984 11.0703 305.984 11.3047C305.984 11.5391 305.911 11.7344 305.766 11.8906C305.62 12.0469 305.406 12.125 305.125 12.125C304.844 12.125 304.63 12.0469 304.484 11.8906C304.344 11.7344 304.273 11.5391 304.273 11.3047ZM309.727 22H308.281V10H309.727V22ZM312.078 21.2422C312.078 20.9922 312.151 20.7839 312.297 20.6172C312.448 20.4505 312.672 20.3672 312.969 20.3672C313.266 20.3672 313.49 20.4505 313.641 20.6172C313.797 20.7839 313.875 20.9922 313.875 21.2422C313.875 21.4818 313.797 21.6823 313.641 21.8438C313.49 22.0052 313.266 22.0859 312.969 22.0859C312.672 22.0859 312.448 22.0052 312.297 21.8438C312.151 21.6823 312.078 21.4818 312.078 21.2422ZM319.656 20.9766C320.172 20.9766 320.622 20.8203 321.008 20.5078C321.393 20.1953 321.607 19.8047 321.648 19.3359H323.016C322.99 19.8203 322.823 20.2812 322.516 20.7188C322.208 21.1562 321.797 21.5052 321.281 21.7656C320.771 22.026 320.229 22.1562 319.656 22.1562C318.505 22.1562 317.589 21.7734 316.906 21.0078C316.229 20.237 315.891 19.1849 315.891 17.8516V17.6094C315.891 16.7865 316.042 16.0547 316.344 15.4141C316.646 14.7734 317.078 14.276 317.641 13.9219C318.208 13.5677 318.878 13.3906 319.648 13.3906C320.596 13.3906 321.383 13.6745 322.008 14.2422C322.638 14.8099 322.974 15.5469 323.016 16.4531H321.648C321.607 15.9062 321.398 15.4583 321.023 15.1094C320.654 14.7552 320.195 14.5781 319.648 14.5781C318.914 14.5781 318.344 14.8438 317.938 15.375C317.536 15.901 317.336 16.6641 317.336 17.6641V17.9375C317.336 18.9115 317.536 19.6615 317.938 20.1875C318.339 20.7135 318.911 20.9766 319.656 20.9766ZM324.258 17.6953C324.258 16.8672 324.419 16.1224 324.742 15.4609C325.07 14.7995 325.523 14.2891 326.102 13.9297C326.685 13.5703 327.349 13.3906 328.094 13.3906C329.245 13.3906 330.174 13.7891 330.883 14.5859C331.596 15.3828 331.953 16.4427 331.953 17.7656V17.8672C331.953 18.6901 331.794 19.4297 331.477 20.0859C331.164 20.737 330.714 21.2448 330.125 21.6094C329.542 21.974 328.87 22.1562 328.109 22.1562C326.964 22.1562 326.034 21.7578 325.32 20.9609C324.612 20.1641 324.258 19.1094 324.258 17.7969V17.6953ZM325.711 17.8672C325.711 18.8047 325.927 19.5573 326.359 20.125C326.797 20.6927 327.38 20.9766 328.109 20.9766C328.844 20.9766 329.427 20.6901 329.859 20.1172C330.292 19.5391 330.508 18.7318 330.508 17.6953C330.508 16.7682 330.286 16.0182 329.844 15.4453C329.406 14.8672 328.823 14.5781 328.094 14.5781C327.38 14.5781 326.805 14.862 326.367 15.4297C325.93 15.9974 325.711 16.8099 325.711 17.8672ZM335.125 13.5469L335.164 14.4844C335.784 13.7552 336.62 13.3906 337.672 13.3906C338.854 13.3906 339.659 13.8438 340.086 14.75C340.367 14.3438 340.732 14.0156 341.18 13.7656C341.633 13.5156 342.167 13.3906 342.781 13.3906C344.635 13.3906 345.578 14.3724 345.609 16.3359V22H344.164V16.4219C344.164 15.8177 344.026 15.3672 343.75 15.0703C343.474 14.7682 343.01 14.6172 342.359 14.6172C341.823 14.6172 341.378 14.7786 341.023 15.1016C340.669 15.4193 340.464 15.849 340.406 16.3906V22H338.953V16.4609C338.953 15.2318 338.352 14.6172 337.148 14.6172C336.201 14.6172 335.552 15.0208 335.203 15.8281V22H333.758V13.5469H335.125ZM347.75 24.2656L346.93 23.7031C347.419 23.0208 347.674 22.3177 347.695 21.5938V20.2891H349.109V21.4219C349.109 21.9479 348.979 22.474 348.719 23C348.464 23.526 348.141 23.9479 347.75 24.2656ZM354.938 21.2422C354.938 20.9922 355.01 20.7839 355.156 20.6172C355.307 20.4505 355.531 20.3672 355.828 20.3672C356.125 20.3672 356.349 20.4505 356.5 20.6172C356.656 20.7839 356.734 20.9922 356.734 21.2422C356.734 21.4818 356.656 21.6823 356.5 21.8438C356.349 22.0052 356.125 22.0859 355.828 22.0859C355.531 22.0859 355.307 22.0052 355.156 21.8438C355.01 21.6823 354.938 21.4818 354.938 21.2422ZM359.156 21.2422C359.156 20.9922 359.229 20.7839 359.375 20.6172C359.526 20.4505 359.75 20.3672 360.047 20.3672C360.344 20.3672 360.568 20.4505 360.719 20.6172C360.875 20.7839 360.953 20.9922 360.953 21.2422C360.953 21.4818 360.875 21.6823 360.719 21.8438C360.568 22.0052 360.344 22.0859 360.047 22.0859C359.75 22.0859 359.526 22.0052 359.375 21.8438C359.229 21.6823 359.156 21.4818 359.156 21.2422ZM363.375 21.2422C363.375 20.9922 363.448 20.7839 363.594 20.6172C363.745 20.4505 363.969 20.3672 364.266 20.3672C364.562 20.3672 364.786 20.4505 364.938 20.6172C365.094 20.7839 365.172 20.9922 365.172 21.2422C365.172 21.4818 365.094 21.6823 364.938 21.8438C364.786 22.0052 364.562 22.0859 364.266 22.0859C363.969 22.0859 363.745 22.0052 363.594 21.8438C363.448 21.6823 363.375 21.4818 363.375 21.2422Z"
    fill="black" />
  <rect x="364" y="5" width="29" height="22" rx="3" fill="#666666" />
  <path
    d="M374.234 15.8984H377.406V17.2656H374.234V20.8594H372.781V17.2656H369.609V15.8984H372.781V12.5781H374.234V15.8984ZM381.125 15.6094H382.211C382.893 15.599 383.43 15.4193 383.82 15.0703C384.211 14.7214 384.406 14.25 384.406 13.6562C384.406 12.3229 383.742 11.6562 382.414 11.6562C381.789 11.6562 381.289 11.8359 380.914 12.1953C380.544 12.5495 380.359 13.0208 380.359 13.6094H378.914C378.914 12.7083 379.242 11.9609 379.898 11.3672C380.56 10.7682 381.398 10.4688 382.414 10.4688C383.487 10.4688 384.328 10.7526 384.938 11.3203C385.547 11.888 385.852 12.6771 385.852 13.6875C385.852 14.1823 385.69 14.6615 385.367 15.125C385.049 15.5885 384.615 15.9349 384.062 16.1641C384.688 16.362 385.169 16.6901 385.508 17.1484C385.852 17.6068 386.023 18.1667 386.023 18.8281C386.023 19.849 385.69 20.6589 385.023 21.2578C384.357 21.8568 383.49 22.1562 382.422 22.1562C381.354 22.1562 380.484 21.8672 379.812 21.2891C379.146 20.7109 378.812 19.9479 378.812 19H380.266C380.266 19.599 380.461 20.0781 380.852 20.4375C381.242 20.7969 381.766 20.9766 382.422 20.9766C383.12 20.9766 383.654 20.7943 384.023 20.4297C384.393 20.0651 384.578 19.5417 384.578 18.8594C384.578 18.1979 384.375 17.6901 383.969 17.3359C383.562 16.9818 382.977 16.7995 382.211 16.7891H381.125V15.6094Z"
    fill="#F0F0F0" />
</svg>
