<svg width="403" height="32" viewBox="0 0 403 32" fill="none" xmlns="http://www.w3.org/2000/svg">
  <rect x="0.5" y="0.5" width="402" height="31" fill="white" stroke="#777777" />
  <path
    d="M17.75 16.7422H12.8203V20.7734H18.5469V22H11.3203V10.625H18.4688V11.8594H12.8203V15.5156H17.75V16.7422ZM23.0234 16.6328L24.8984 13.5469H26.5859L23.8203 17.7266L26.6719 22H25L23.0469 18.8359L21.0938 22H19.4141L22.2656 17.7266L19.5 13.5469H21.1719L23.0234 16.6328ZM30.0859 11.5V13.5469H31.6641V14.6641H30.0859V19.9062C30.0859 20.2448 30.1562 20.5 30.2969 20.6719C30.4375 20.8385 30.6771 20.9219 31.0156 20.9219C31.1823 20.9219 31.4115 20.8906 31.7031 20.8281V22C31.3229 22.1042 30.9531 22.1562 30.5938 22.1562C29.9479 22.1562 29.4609 21.9609 29.1328 21.5703C28.8047 21.1797 28.6406 20.625 28.6406 19.9062V14.6641H27.1016V13.5469H28.6406V11.5H30.0859ZM37.4453 14.8438C37.2266 14.8073 36.9896 14.7891 36.7344 14.7891C35.7865 14.7891 35.1432 15.1927 34.8047 16V22H33.3594V13.5469H34.7656L34.7891 14.5234C35.263 13.7682 35.9349 13.3906 36.8047 13.3906C37.0859 13.3906 37.2995 13.4271 37.4453 13.5V14.8438ZM42.1328 22.1562C40.987 22.1562 40.0547 21.7812 39.3359 21.0312C38.6172 20.276 38.2578 19.2682 38.2578 18.0078V17.7422C38.2578 16.9036 38.4167 16.1562 38.7344 15.5C39.0573 14.8385 39.5052 14.3229 40.0781 13.9531C40.6562 13.5781 41.2812 13.3906 41.9531 13.3906C43.0521 13.3906 43.9062 13.7526 44.5156 14.4766C45.125 15.2005 45.4297 16.237 45.4297 17.5859V18.1875H39.7031C39.724 19.0208 39.9661 19.6953 40.4297 20.2109C40.8984 20.7214 41.4922 20.9766 42.2109 20.9766C42.7214 20.9766 43.1536 20.8724 43.5078 20.6641C43.862 20.4557 44.1719 20.1797 44.4375 19.8359L45.3203 20.5234C44.612 21.612 43.5495 22.1562 42.1328 22.1562ZM41.9531 14.5781C41.3698 14.5781 40.8802 14.7917 40.4844 15.2188C40.0885 15.6406 39.8438 16.2344 39.75 17H43.9844V16.8906C43.9427 16.1562 43.7448 15.5885 43.3906 15.1875C43.0365 14.7812 42.5573 14.5781 41.9531 14.5781ZM48.4688 13.5469L48.5078 14.4844C49.1276 13.7552 49.9635 13.3906 51.0156 13.3906C52.1979 13.3906 53.0026 13.8438 53.4297 14.75C53.7109 14.3438 54.0755 14.0156 54.5234 13.7656C54.9766 13.5156 55.5104 13.3906 56.125 13.3906C57.9792 13.3906 58.9219 14.3724 58.9531 16.3359V22H57.5078V16.4219C57.5078 15.8177 57.3698 15.3672 57.0938 15.0703C56.8177 14.7682 56.3542 14.6172 55.7031 14.6172C55.1667 14.6172 54.7214 14.7786 54.3672 15.1016C54.013 15.4193 53.8073 15.849 53.75 16.3906V22H52.2969V16.4609C52.2969 15.2318 51.6953 14.6172 50.4922 14.6172C49.5443 14.6172 48.8958 15.0208 48.5469 15.8281V22H47.1016V13.5469H48.4688ZM64.6484 22.1562C63.5026 22.1562 62.5703 21.7812 61.8516 21.0312C61.1328 20.276 60.7734 19.2682 60.7734 18.0078V17.7422C60.7734 16.9036 60.9323 16.1562 61.25 15.5C61.5729 14.8385 62.0208 14.3229 62.5938 13.9531C63.1719 13.5781 63.7969 13.3906 64.4688 13.3906C65.5677 13.3906 66.4219 13.7526 67.0312 14.4766C67.6406 15.2005 67.9453 16.237 67.9453 17.5859V18.1875H62.2188C62.2396 19.0208 62.4818 19.6953 62.9453 20.2109C63.4141 20.7214 64.0078 20.9766 64.7266 20.9766C65.237 20.9766 65.6693 20.8724 66.0234 20.6641C66.3776 20.4557 66.6875 20.1797 66.9531 19.8359L67.8359 20.5234C67.1276 21.612 66.0651 22.1562 64.6484 22.1562ZM64.4688 14.5781C63.8854 14.5781 63.3958 14.7917 63 15.2188C62.6042 15.6406 62.3594 16.2344 62.2656 17H66.5V16.8906C66.4583 16.1562 66.2604 15.5885 65.9062 15.1875C65.5521 14.7812 65.0729 14.5781 64.4688 14.5781ZM71.1953 22H69.75V10H71.1953V22ZM76.2812 19.8828L78.25 13.5469H79.7969L76.3984 23.3047C75.8724 24.7109 75.0365 25.4141 73.8906 25.4141L73.6172 25.3906L73.0781 25.2891V24.1172L73.4688 24.1484C73.9583 24.1484 74.3385 24.0495 74.6094 23.8516C74.8854 23.6536 75.112 23.2917 75.2891 22.7656L75.6094 21.9062L72.5938 13.5469H74.1719L76.2812 19.8828ZM87.1875 23.1797H80.0312V22H87.1875V23.1797ZM91.8203 22.1562C90.6745 22.1562 89.7422 21.7812 89.0234 21.0312C88.3047 20.276 87.9453 19.2682 87.9453 18.0078V17.7422C87.9453 16.9036 88.1042 16.1562 88.4219 15.5C88.7448 14.8385 89.1927 14.3229 89.7656 13.9531C90.3438 13.5781 90.9688 13.3906 91.6406 13.3906C92.7396 13.3906 93.5938 13.7526 94.2031 14.4766C94.8125 15.2005 95.1172 16.237 95.1172 17.5859V18.1875H89.3906C89.4115 19.0208 89.6536 19.6953 90.1172 20.2109C90.5859 20.7214 91.1797 20.9766 91.8984 20.9766C92.4089 20.9766 92.8411 20.8724 93.1953 20.6641C93.5495 20.4557 93.8594 20.1797 94.125 19.8359L95.0078 20.5234C94.2995 21.612 93.237 22.1562 91.8203 22.1562ZM91.6406 14.5781C91.0573 14.5781 90.5677 14.7917 90.1719 15.2188C89.776 15.6406 89.5312 16.2344 89.4375 17H93.6719V16.8906C93.6302 16.1562 93.4323 15.5885 93.0781 15.1875C92.724 14.7812 92.2448 14.5781 91.6406 14.5781ZM99.6328 16.6328L101.508 13.5469H103.195L100.43 17.7266L103.281 22H101.609L99.6562 18.8359L97.7031 22H96.0234L98.875 17.7266L96.1094 13.5469H97.7812L99.6328 16.6328ZM106.695 11.5V13.5469H108.273V14.6641H106.695V19.9062C106.695 20.2448 106.766 20.5 106.906 20.6719C107.047 20.8385 107.286 20.9219 107.625 20.9219C107.792 20.9219 108.021 20.8906 108.312 20.8281V22C107.932 22.1042 107.562 22.1562 107.203 22.1562C106.557 22.1562 106.07 21.9609 105.742 21.5703C105.414 21.1797 105.25 20.625 105.25 19.9062V14.6641H103.711V13.5469H105.25V11.5H106.695ZM114.055 14.8438C113.836 14.8073 113.599 14.7891 113.344 14.7891C112.396 14.7891 111.753 15.1927 111.414 16V22H109.969V13.5469H111.375L111.398 14.5234C111.872 13.7682 112.544 13.3906 113.414 13.3906C113.695 13.3906 113.909 13.4271 114.055 13.5V14.8438ZM118.742 22.1562C117.596 22.1562 116.664 21.7812 115.945 21.0312C115.227 20.276 114.867 19.2682 114.867 18.0078V17.7422C114.867 16.9036 115.026 16.1562 115.344 15.5C115.667 14.8385 116.115 14.3229 116.688 13.9531C117.266 13.5781 117.891 13.3906 118.562 13.3906C119.661 13.3906 120.516 13.7526 121.125 14.4766C121.734 15.2005 122.039 16.237 122.039 17.5859V18.1875H116.312C116.333 19.0208 116.576 19.6953 117.039 20.2109C117.508 20.7214 118.102 20.9766 118.82 20.9766C119.331 20.9766 119.763 20.8724 120.117 20.6641C120.471 20.4557 120.781 20.1797 121.047 19.8359L121.93 20.5234C121.221 21.612 120.159 22.1562 118.742 22.1562ZM118.562 14.5781C117.979 14.5781 117.49 14.7917 117.094 15.2188C116.698 15.6406 116.453 16.2344 116.359 17H120.594V16.8906C120.552 16.1562 120.354 15.5885 120 15.1875C119.646 14.7812 119.167 14.5781 118.562 14.5781ZM125.078 13.5469L125.117 14.4844C125.737 13.7552 126.573 13.3906 127.625 13.3906C128.807 13.3906 129.612 13.8438 130.039 14.75C130.32 14.3438 130.685 14.0156 131.133 13.7656C131.586 13.5156 132.12 13.3906 132.734 13.3906C134.589 13.3906 135.531 14.3724 135.562 16.3359V22H134.117V16.4219C134.117 15.8177 133.979 15.3672 133.703 15.0703C133.427 14.7682 132.964 14.6172 132.312 14.6172C131.776 14.6172 131.331 14.7786 130.977 15.1016C130.622 15.4193 130.417 15.849 130.359 16.3906V22H128.906V16.4609C128.906 15.2318 128.305 14.6172 127.102 14.6172C126.154 14.6172 125.505 15.0208 125.156 15.8281V22H123.711V13.5469H125.078ZM141.258 22.1562C140.112 22.1562 139.18 21.7812 138.461 21.0312C137.742 20.276 137.383 19.2682 137.383 18.0078V17.7422C137.383 16.9036 137.542 16.1562 137.859 15.5C138.182 14.8385 138.63 14.3229 139.203 13.9531C139.781 13.5781 140.406 13.3906 141.078 13.3906C142.177 13.3906 143.031 13.7526 143.641 14.4766C144.25 15.2005 144.555 16.237 144.555 17.5859V18.1875H138.828C138.849 19.0208 139.091 19.6953 139.555 20.2109C140.023 20.7214 140.617 20.9766 141.336 20.9766C141.846 20.9766 142.279 20.8724 142.633 20.6641C142.987 20.4557 143.297 20.1797 143.562 19.8359L144.445 20.5234C143.737 21.612 142.674 22.1562 141.258 22.1562ZM141.078 14.5781C140.495 14.5781 140.005 14.7917 139.609 15.2188C139.214 15.6406 138.969 16.2344 138.875 17H143.109V16.8906C143.068 16.1562 142.87 15.5885 142.516 15.1875C142.161 14.7812 141.682 14.5781 141.078 14.5781ZM147.805 22H146.359V10H147.805V22ZM152.891 19.8828L154.859 13.5469H156.406L153.008 23.3047C152.482 24.7109 151.646 25.4141 150.5 25.4141L150.227 25.3906L149.688 25.2891V24.1172L150.078 24.1484C150.568 24.1484 150.948 24.0495 151.219 23.8516C151.495 23.6536 151.721 23.2917 151.898 22.7656L152.219 21.9062L149.203 13.5469H150.781L152.891 19.8828ZM163.797 23.1797H156.641V22H163.797V23.1797ZM166.492 22H165.047V10H166.492V22ZM168.43 17.6953C168.43 16.8672 168.591 16.1224 168.914 15.4609C169.242 14.7995 169.695 14.2891 170.273 13.9297C170.857 13.5703 171.521 13.3906 172.266 13.3906C173.417 13.3906 174.346 13.7891 175.055 14.5859C175.768 15.3828 176.125 16.4427 176.125 17.7656V17.8672C176.125 18.6901 175.966 19.4297 175.648 20.0859C175.336 20.737 174.885 21.2448 174.297 21.6094C173.714 21.974 173.042 22.1562 172.281 22.1562C171.135 22.1562 170.206 21.7578 169.492 20.9609C168.784 20.1641 168.43 19.1094 168.43 17.7969V17.6953ZM169.883 17.8672C169.883 18.8047 170.099 19.5573 170.531 20.125C170.969 20.6927 171.552 20.9766 172.281 20.9766C173.016 20.9766 173.599 20.6901 174.031 20.1172C174.464 19.5391 174.68 18.7318 174.68 17.6953C174.68 16.7682 174.458 16.0182 174.016 15.4453C173.578 14.8672 172.995 14.5781 172.266 14.5781C171.552 14.5781 170.977 14.862 170.539 15.4297C170.102 15.9974 169.883 16.8099 169.883 17.8672ZM179.305 13.5469L179.352 14.6094C179.997 13.7969 180.841 13.3906 181.883 13.3906C183.669 13.3906 184.57 14.3984 184.586 16.4141V22H183.141V16.4062C183.135 15.7969 182.995 15.3464 182.719 15.0547C182.448 14.763 182.023 14.6172 181.445 14.6172C180.977 14.6172 180.565 14.7422 180.211 14.9922C179.857 15.2422 179.581 15.5703 179.383 15.9766V22H177.938V13.5469H179.305ZM186.422 17.7031C186.422 16.3854 186.727 15.3385 187.336 14.5625C187.945 13.7812 188.753 13.3906 189.758 13.3906C190.789 13.3906 191.594 13.7552 192.172 14.4844L192.242 13.5469H193.562V21.7969C193.562 22.8906 193.237 23.7526 192.586 24.3828C191.94 25.013 191.07 25.3281 189.977 25.3281C189.367 25.3281 188.771 25.1979 188.188 24.9375C187.604 24.6771 187.159 24.3203 186.852 23.8672L187.602 23C188.221 23.7656 188.979 24.1484 189.875 24.1484C190.578 24.1484 191.125 23.9505 191.516 23.5547C191.911 23.1589 192.109 22.6016 192.109 21.8828V21.1562C191.531 21.8229 190.742 22.1562 189.742 22.1562C188.753 22.1562 187.951 21.7578 187.336 20.9609C186.727 20.1641 186.422 19.0781 186.422 17.7031ZM187.875 17.8672C187.875 18.8203 188.07 19.5703 188.461 20.1172C188.852 20.6589 189.398 20.9297 190.102 20.9297C191.013 20.9297 191.682 20.5156 192.109 19.6875V15.8281C191.667 15.0208 191.003 14.6172 190.117 14.6172C189.414 14.6172 188.865 14.8906 188.469 15.4375C188.073 15.9844 187.875 16.7943 187.875 17.8672ZM201.844 23.1797H194.688V22H201.844V23.1797ZM206.477 22.1562C205.331 22.1562 204.398 21.7812 203.68 21.0312C202.961 20.276 202.602 19.2682 202.602 18.0078V17.7422C202.602 16.9036 202.76 16.1562 203.078 15.5C203.401 14.8385 203.849 14.3229 204.422 13.9531C205 13.5781 205.625 13.3906 206.297 13.3906C207.396 13.3906 208.25 13.7526 208.859 14.4766C209.469 15.2005 209.773 16.237 209.773 17.5859V18.1875H204.047C204.068 19.0208 204.31 19.6953 204.773 20.2109C205.242 20.7214 205.836 20.9766 206.555 20.9766C207.065 20.9766 207.497 20.8724 207.852 20.6641C208.206 20.4557 208.516 20.1797 208.781 19.8359L209.664 20.5234C208.956 21.612 207.893 22.1562 206.477 22.1562ZM206.297 14.5781C205.714 14.5781 205.224 14.7917 204.828 15.2188C204.432 15.6406 204.188 16.2344 204.094 17H208.328V16.8906C208.286 16.1562 208.089 15.5885 207.734 15.1875C207.38 14.7812 206.901 14.5781 206.297 14.5781ZM212.812 13.5469L212.852 14.4844C213.471 13.7552 214.307 13.3906 215.359 13.3906C216.542 13.3906 217.346 13.8438 217.773 14.75C218.055 14.3438 218.419 14.0156 218.867 13.7656C219.32 13.5156 219.854 13.3906 220.469 13.3906C222.323 13.3906 223.266 14.3724 223.297 16.3359V22H221.852V16.4219C221.852 15.8177 221.714 15.3672 221.438 15.0703C221.161 14.7682 220.698 14.6172 220.047 14.6172C219.51 14.6172 219.065 14.7786 218.711 15.1016C218.357 15.4193 218.151 15.849 218.094 16.3906V22H216.641V16.4609C216.641 15.2318 216.039 14.6172 214.836 14.6172C213.888 14.6172 213.24 15.0208 212.891 15.8281V22H211.445V13.5469H212.812ZM230.703 22C230.62 21.8333 230.552 21.5365 230.5 21.1094C229.828 21.8073 229.026 22.1562 228.094 22.1562C227.26 22.1562 226.576 21.9219 226.039 21.4531C225.508 20.9792 225.242 20.3802 225.242 19.6562C225.242 18.776 225.576 18.0938 226.242 17.6094C226.914 17.1198 227.857 16.875 229.07 16.875H230.477V16.2109C230.477 15.7057 230.326 15.3047 230.023 15.0078C229.721 14.7057 229.276 14.5547 228.688 14.5547C228.172 14.5547 227.74 14.6849 227.391 14.9453C227.042 15.2057 226.867 15.5208 226.867 15.8906H225.414C225.414 15.4688 225.562 15.0625 225.859 14.6719C226.161 14.276 226.568 13.9635 227.078 13.7344C227.594 13.5052 228.159 13.3906 228.773 13.3906C229.747 13.3906 230.51 13.6354 231.062 14.125C231.615 14.6094 231.901 15.2786 231.922 16.1328V20.0234C231.922 20.7995 232.021 21.4167 232.219 21.875V22H230.703ZM228.305 20.8984C228.758 20.8984 229.188 20.7812 229.594 20.5469C230 20.3125 230.294 20.0078 230.477 19.6328V17.8984H229.344C227.573 17.8984 226.688 18.4167 226.688 19.4531C226.688 19.9062 226.839 20.2604 227.141 20.5156C227.443 20.7708 227.831 20.8984 228.305 20.8984ZM235.758 22H234.312V13.5469H235.758V22ZM234.195 11.3047C234.195 11.0703 234.266 10.8724 234.406 10.7109C234.552 10.5495 234.766 10.4688 235.047 10.4688C235.328 10.4688 235.542 10.5495 235.688 10.7109C235.833 10.8724 235.906 11.0703 235.906 11.3047C235.906 11.5391 235.833 11.7344 235.688 11.8906C235.542 12.0469 235.328 12.125 235.047 12.125C234.766 12.125 234.552 12.0469 234.406 11.8906C234.266 11.7344 234.195 11.5391 234.195 11.3047ZM239.648 22H238.203V10H239.648V22ZM248.062 23.1797H240.906V22H248.062V23.1797ZM254.406 22C254.323 21.8333 254.255 21.5365 254.203 21.1094C253.531 21.8073 252.729 22.1562 251.797 22.1562C250.964 22.1562 250.279 21.9219 249.742 21.4531C249.211 20.9792 248.945 20.3802 248.945 19.6562C248.945 18.776 249.279 18.0938 249.945 17.6094C250.617 17.1198 251.56 16.875 252.773 16.875H254.18V16.2109C254.18 15.7057 254.029 15.3047 253.727 15.0078C253.424 14.7057 252.979 14.5547 252.391 14.5547C251.875 14.5547 251.443 14.6849 251.094 14.9453C250.745 15.2057 250.57 15.5208 250.57 15.8906H249.117C249.117 15.4688 249.266 15.0625 249.562 14.6719C249.865 14.276 250.271 13.9635 250.781 13.7344C251.297 13.5052 251.862 13.3906 252.477 13.3906C253.451 13.3906 254.214 13.6354 254.766 14.125C255.318 14.6094 255.604 15.2786 255.625 16.1328V20.0234C255.625 20.7995 255.724 21.4167 255.922 21.875V22H254.406ZM252.008 20.8984C252.461 20.8984 252.891 20.7812 253.297 20.5469C253.703 20.3125 253.997 20.0078 254.18 19.6328V17.8984H253.047C251.276 17.8984 250.391 18.4167 250.391 19.4531C250.391 19.9062 250.542 20.2604 250.844 20.5156C251.146 20.7708 251.534 20.8984 252.008 20.8984ZM257.539 17.7031C257.539 16.4062 257.846 15.3646 258.461 14.5781C259.076 13.7865 259.88 13.3906 260.875 13.3906C261.865 13.3906 262.648 13.7292 263.227 14.4062V10H264.672V22H263.344L263.273 21.0938C262.695 21.8021 261.891 22.1562 260.859 22.1562C259.88 22.1562 259.081 21.7552 258.461 20.9531C257.846 20.151 257.539 19.1042 257.539 17.8125V17.7031ZM258.984 17.8672C258.984 18.8255 259.182 19.5755 259.578 20.1172C259.974 20.6589 260.521 20.9297 261.219 20.9297C262.135 20.9297 262.805 20.5182 263.227 19.6953V15.8125C262.794 15.0156 262.13 14.6172 261.234 14.6172C260.526 14.6172 259.974 14.8906 259.578 15.4375C259.182 15.9844 258.984 16.7943 258.984 17.8672ZM266.57 17.7031C266.57 16.4062 266.878 15.3646 267.492 14.5781C268.107 13.7865 268.911 13.3906 269.906 13.3906C270.896 13.3906 271.68 13.7292 272.258 14.4062V10H273.703V22H272.375L272.305 21.0938C271.727 21.8021 270.922 22.1562 269.891 22.1562C268.911 22.1562 268.112 21.7552 267.492 20.9531C266.878 20.151 266.57 19.1042 266.57 17.8125V17.7031ZM268.016 17.8672C268.016 18.8255 268.214 19.5755 268.609 20.1172C269.005 20.6589 269.552 20.9297 270.25 20.9297C271.167 20.9297 271.836 20.5182 272.258 19.6953V15.8125C271.826 15.0156 271.161 14.6172 270.266 14.6172C269.557 14.6172 269.005 14.8906 268.609 15.4375C268.214 15.9844 268.016 16.7943 268.016 17.8672ZM280.039 14.8438C279.82 14.8073 279.583 14.7891 279.328 14.7891C278.38 14.7891 277.737 15.1927 277.398 16V22H275.953V13.5469H277.359L277.383 14.5234C277.857 13.7682 278.529 13.3906 279.398 13.3906C279.68 13.3906 279.893 13.4271 280.039 13.5V14.8438ZM284.727 22.1562C283.581 22.1562 282.648 21.7812 281.93 21.0312C281.211 20.276 280.852 19.2682 280.852 18.0078V17.7422C280.852 16.9036 281.01 16.1562 281.328 15.5C281.651 14.8385 282.099 14.3229 282.672 13.9531C283.25 13.5781 283.875 13.3906 284.547 13.3906C285.646 13.3906 286.5 13.7526 287.109 14.4766C287.719 15.2005 288.023 16.237 288.023 17.5859V18.1875H282.297C282.318 19.0208 282.56 19.6953 283.023 20.2109C283.492 20.7214 284.086 20.9766 284.805 20.9766C285.315 20.9766 285.747 20.8724 286.102 20.6641C286.456 20.4557 286.766 20.1797 287.031 19.8359L287.914 20.5234C287.206 21.612 286.143 22.1562 284.727 22.1562ZM284.547 14.5781C283.964 14.5781 283.474 14.7917 283.078 15.2188C282.682 15.6406 282.438 16.2344 282.344 17H286.578V16.8906C286.536 16.1562 286.339 15.5885 285.984 15.1875C285.63 14.7812 285.151 14.5781 284.547 14.5781ZM294.625 19.7578C294.625 19.3672 294.477 19.0651 294.18 18.8516C293.888 18.6328 293.375 18.4453 292.641 18.2891C291.911 18.1328 291.331 17.9453 290.898 17.7266C290.471 17.5078 290.154 17.2474 289.945 16.9453C289.742 16.6432 289.641 16.2839 289.641 15.8672C289.641 15.1745 289.932 14.5885 290.516 14.1094C291.104 13.6302 291.854 13.3906 292.766 13.3906C293.724 13.3906 294.5 13.638 295.094 14.1328C295.693 14.6276 295.992 15.2604 295.992 16.0312H294.539C294.539 15.6354 294.37 15.2943 294.031 15.0078C293.698 14.7214 293.276 14.5781 292.766 14.5781C292.24 14.5781 291.828 14.6927 291.531 14.9219C291.234 15.151 291.086 15.4505 291.086 15.8203C291.086 16.1693 291.224 16.4323 291.5 16.6094C291.776 16.7865 292.273 16.9557 292.992 17.1172C293.716 17.2786 294.302 17.4714 294.75 17.6953C295.198 17.9193 295.529 18.1901 295.742 18.5078C295.961 18.8203 296.07 19.2031 296.07 19.6562C296.07 20.4115 295.768 21.0182 295.164 21.4766C294.56 21.9297 293.776 22.1562 292.812 22.1562C292.135 22.1562 291.536 22.0365 291.016 21.7969C290.495 21.5573 290.086 21.224 289.789 20.7969C289.497 20.3646 289.352 19.8984 289.352 19.3984H290.797C290.823 19.8828 291.016 20.2682 291.375 20.5547C291.74 20.8359 292.219 20.9766 292.812 20.9766C293.359 20.9766 293.797 20.8672 294.125 20.6484C294.458 20.4245 294.625 20.1276 294.625 19.7578ZM302.875 19.7578C302.875 19.3672 302.727 19.0651 302.43 18.8516C302.138 18.6328 301.625 18.4453 300.891 18.2891C300.161 18.1328 299.581 17.9453 299.148 17.7266C298.721 17.5078 298.404 17.2474 298.195 16.9453C297.992 16.6432 297.891 16.2839 297.891 15.8672C297.891 15.1745 298.182 14.5885 298.766 14.1094C299.354 13.6302 300.104 13.3906 301.016 13.3906C301.974 13.3906 302.75 13.638 303.344 14.1328C303.943 14.6276 304.242 15.2604 304.242 16.0312H302.789C302.789 15.6354 302.62 15.2943 302.281 15.0078C301.948 14.7214 301.526 14.5781 301.016 14.5781C300.49 14.5781 300.078 14.6927 299.781 14.9219C299.484 15.151 299.336 15.4505 299.336 15.8203C299.336 16.1693 299.474 16.4323 299.75 16.6094C300.026 16.7865 300.523 16.9557 301.242 17.1172C301.966 17.2786 302.552 17.4714 303 17.6953C303.448 17.9193 303.779 18.1901 303.992 18.5078C304.211 18.8203 304.32 19.2031 304.32 19.6562C304.32 20.4115 304.018 21.0182 303.414 21.4766C302.81 21.9297 302.026 22.1562 301.062 22.1562C300.385 22.1562 299.786 22.0365 299.266 21.7969C298.745 21.5573 298.336 21.224 298.039 20.7969C297.747 20.3646 297.602 19.8984 297.602 19.3984H299.047C299.073 19.8828 299.266 20.2682 299.625 20.5547C299.99 20.8359 300.469 20.9766 301.062 20.9766C301.609 20.9766 302.047 20.8672 302.375 20.6484C302.708 20.4245 302.875 20.1276 302.875 19.7578ZM312.297 23.1797H305.141V22H312.297V23.1797ZM314.867 14.5703C315.508 13.7839 316.341 13.3906 317.367 13.3906C319.154 13.3906 320.055 14.3984 320.07 16.4141V22H318.625V16.4062C318.62 15.7969 318.479 15.3464 318.203 15.0547C317.932 14.763 317.508 14.6172 316.93 14.6172C316.461 14.6172 316.049 14.7422 315.695 14.9922C315.341 15.2422 315.065 15.5703 314.867 15.9766V22H313.422V10H314.867V14.5703ZM325.742 22.1562C324.596 22.1562 323.664 21.7812 322.945 21.0312C322.227 20.276 321.867 19.2682 321.867 18.0078V17.7422C321.867 16.9036 322.026 16.1562 322.344 15.5C322.667 14.8385 323.115 14.3229 323.688 13.9531C324.266 13.5781 324.891 13.3906 325.562 13.3906C326.661 13.3906 327.516 13.7526 328.125 14.4766C328.734 15.2005 329.039 16.237 329.039 17.5859V18.1875H323.312C323.333 19.0208 323.576 19.6953 324.039 20.2109C324.508 20.7214 325.102 20.9766 325.82 20.9766C326.331 20.9766 326.763 20.8724 327.117 20.6641C327.471 20.4557 327.781 20.1797 328.047 19.8359L328.93 20.5234C328.221 21.612 327.159 22.1562 325.742 22.1562ZM325.562 14.5781C324.979 14.5781 324.49 14.7917 324.094 15.2188C323.698 15.6406 323.453 16.2344 323.359 17H327.594V16.8906C327.552 16.1562 327.354 15.5885 327 15.1875C326.646 14.7812 326.167 14.5781 325.562 14.5781ZM334.805 14.8438C334.586 14.8073 334.349 14.7891 334.094 14.7891C333.146 14.7891 332.503 15.1927 332.164 16V22H330.719V13.5469H332.125L332.148 14.5234C332.622 13.7682 333.294 13.3906 334.164 13.3906C334.445 13.3906 334.659 13.4271 334.805 13.5V14.8438ZM339.492 22.1562C338.346 22.1562 337.414 21.7812 336.695 21.0312C335.977 20.276 335.617 19.2682 335.617 18.0078V17.7422C335.617 16.9036 335.776 16.1562 336.094 15.5C336.417 14.8385 336.865 14.3229 337.438 13.9531C338.016 13.5781 338.641 13.3906 339.312 13.3906C340.411 13.3906 341.266 13.7526 341.875 14.4766C342.484 15.2005 342.789 16.237 342.789 17.5859V18.1875H337.062C337.083 19.0208 337.326 19.6953 337.789 20.2109C338.258 20.7214 338.852 20.9766 339.57 20.9766C340.081 20.9766 340.513 20.8724 340.867 20.6641C341.221 20.4557 341.531 20.1797 341.797 19.8359L342.68 20.5234C341.971 21.612 340.909 22.1562 339.492 22.1562ZM339.312 14.5781C338.729 14.5781 338.24 14.7917 337.844 15.2188C337.448 15.6406 337.203 16.2344 337.109 17H341.344V16.8906C341.302 16.1562 341.104 15.5885 340.75 15.1875C340.396 14.7812 339.917 14.5781 339.312 14.5781ZM356.953 18.0781C356.891 19.3385 356.578 20.3333 356.016 21.0625C355.453 21.7917 354.701 22.1562 353.758 22.1562C352.784 22.1562 352.159 21.7188 351.883 20.8438C351.602 21.2865 351.279 21.6172 350.914 21.8359C350.555 22.0495 350.182 22.1562 349.797 22.1562C349.057 22.1562 348.497 21.8542 348.117 21.25C347.737 20.6458 347.596 19.8099 347.695 18.7422C347.773 17.8828 347.969 17.1172 348.281 16.4453C348.599 15.7682 349.005 15.237 349.5 14.8516C350 14.4661 350.523 14.2734 351.07 14.2734C351.492 14.2734 351.87 14.3307 352.203 14.4453C352.536 14.5547 352.911 14.7734 353.328 15.1016L352.922 19.4297C352.823 20.6328 353.156 21.2344 353.922 21.2344C354.51 21.2344 354.987 20.9427 355.352 20.3594C355.716 19.776 355.914 19.0156 355.945 18.0781C356.044 16.0521 355.667 14.5078 354.812 13.4453C353.964 12.3828 352.669 11.8516 350.93 11.8516C349.883 11.8516 348.953 12.112 348.141 12.6328C347.328 13.1484 346.688 13.8958 346.219 14.875C345.75 15.8542 345.487 16.9844 345.43 18.2656C345.367 19.5573 345.523 20.6797 345.898 21.6328C346.273 22.5807 346.844 23.3047 347.609 23.8047C348.38 24.3099 349.31 24.5625 350.398 24.5625C350.867 24.5625 351.336 24.5052 351.805 24.3906C352.279 24.276 352.672 24.1276 352.984 23.9453L353.273 24.8438C352.951 25.0469 352.521 25.2135 351.984 25.3438C351.453 25.474 350.914 25.5391 350.367 25.5391C349.065 25.5391 347.945 25.2448 347.008 24.6562C346.07 24.0729 345.367 23.2292 344.898 22.125C344.435 21.026 344.234 19.7396 344.297 18.2656C344.359 16.8333 344.68 15.5469 345.258 14.4062C345.836 13.2604 346.62 12.3776 347.609 11.7578C348.599 11.1328 349.716 10.8203 350.961 10.8203C352.258 10.8203 353.37 11.112 354.297 11.6953C355.224 12.2786 355.914 13.1198 356.367 14.2188C356.82 15.3177 357.016 16.6042 356.953 18.0781ZM348.938 18.7422C348.865 19.4818 348.932 20.0495 349.141 20.4453C349.354 20.8411 349.69 21.0391 350.148 21.0391C350.461 21.0391 350.76 20.9062 351.047 20.6406C351.339 20.375 351.578 19.9948 351.766 19.5L351.773 19.4297L352.133 15.5C351.841 15.349 351.529 15.2734 351.195 15.2734C350.586 15.2734 350.081 15.5833 349.68 16.2031C349.284 16.8229 349.036 17.6693 348.938 18.7422ZM358.461 17.6953C358.461 16.8672 358.622 16.1224 358.945 15.4609C359.273 14.7995 359.727 14.2891 360.305 13.9297C360.888 13.5703 361.552 13.3906 362.297 13.3906C363.448 13.3906 364.378 13.7891 365.086 14.5859C365.799 15.3828 366.156 16.4427 366.156 17.7656V17.8672C366.156 18.6901 365.997 19.4297 365.68 20.0859C365.367 20.737 364.917 21.2448 364.328 21.6094C363.745 21.974 363.073 22.1562 362.312 22.1562C361.167 22.1562 360.237 21.7578 359.523 20.9609C358.815 20.1641 358.461 19.1094 358.461 17.7969V17.6953ZM359.914 17.8672C359.914 18.8047 360.13 19.5573 360.562 20.125C361 20.6927 361.583 20.9766 362.312 20.9766C363.047 20.9766 363.63 20.6901 364.062 20.1172C364.495 19.5391 364.711 18.7318 364.711 17.6953C364.711 16.7682 364.49 16.0182 364.047 15.4453C363.609 14.8672 363.026 14.5781 362.297 14.5781C361.583 14.5781 361.008 14.862 360.57 15.4297C360.133 15.9974 359.914 16.8099 359.914 17.8672ZM373.188 21.1641C372.625 21.8255 371.799 22.1562 370.711 22.1562C369.81 22.1562 369.122 21.8958 368.648 21.375C368.18 20.849 367.943 20.0729 367.938 19.0469V13.5469H369.383V19.0078C369.383 20.2891 369.904 20.9297 370.945 20.9297C372.049 20.9297 372.784 20.5182 373.148 19.6953V13.5469H374.594V22H373.219L373.188 21.1641ZM376.828 21.2422C376.828 20.9922 376.901 20.7839 377.047 20.6172C377.198 20.4505 377.422 20.3672 377.719 20.3672C378.016 20.3672 378.24 20.4505 378.391 20.6172C378.547 20.7839 378.625 20.9922 378.625 21.2422C378.625 21.4818 378.547 21.6823 378.391 21.8438C378.24 22.0052 378.016 22.0859 377.719 22.0859C377.422 22.0859 377.198 22.0052 377.047 21.8438C376.901 21.6823 376.828 21.4818 376.828 21.2422ZM381.047 21.2422C381.047 20.9922 381.12 20.7839 381.266 20.6172C381.417 20.4505 381.641 20.3672 381.938 20.3672C382.234 20.3672 382.458 20.4505 382.609 20.6172C382.766 20.7839 382.844 20.9922 382.844 21.2422C382.844 21.4818 382.766 21.6823 382.609 21.8438C382.458 22.0052 382.234 22.0859 381.938 22.0859C381.641 22.0859 381.417 22.0052 381.266 21.8438C381.12 21.6823 381.047 21.4818 381.047 21.2422ZM385.266 21.2422C385.266 20.9922 385.339 20.7839 385.484 20.6172C385.635 20.4505 385.859 20.3672 386.156 20.3672C386.453 20.3672 386.677 20.4505 386.828 20.6172C386.984 20.7839 387.062 20.9922 387.062 21.2422C387.062 21.4818 386.984 21.6823 386.828 21.8438C386.677 22.0052 386.453 22.0859 386.156 22.0859C385.859 22.0859 385.635 22.0052 385.484 21.8438C385.339 21.6823 385.266 21.4818 385.266 21.2422Z"
    fill="black" />
</svg>
