<svg width="432" height="32" viewBox="0 0 432 32" fill="none" xmlns="http://www.w3.org/2000/svg">
  <line x1="414.403" y1="15.7036" x2="420.33" y2="23.7575" stroke="#00CC22" />
  <line x1="420.169" y1="23.6822" x2="430.666" y2="8.52272" stroke="#00CC22" />
  <rect x="0.5" y="0.5" width="402" height="31" fill="white" stroke="#777777" />
  <path
    d="M14.2109 16.7109L12.8203 18.1562V22H11.3203V10.625H12.8203V16.25L17.875 10.625H19.6875L15.2109 15.6484L20.0391 22H18.2422L14.2109 16.7109ZM24.4297 22.1562C23.2839 22.1562 22.3516 21.7812 21.6328 21.0312C20.9141 20.276 20.5547 19.2682 20.5547 18.0078V17.7422C20.5547 16.9036 20.7135 16.1562 21.0312 15.5C21.3542 14.8385 21.8021 14.3229 22.375 13.9531C22.9531 13.5781 23.5781 13.3906 24.25 13.3906C25.349 13.3906 26.2031 13.7526 26.8125 14.4766C27.4219 15.2005 27.7266 16.237 27.7266 17.5859V18.1875H22C22.0208 19.0208 22.263 19.6953 22.7266 20.2109C23.1953 20.7214 23.7891 20.9766 24.5078 20.9766C25.0182 20.9766 25.4505 20.8724 25.8047 20.6641C26.1589 20.4557 26.4688 20.1797 26.7344 19.8359L27.6172 20.5234C26.9089 21.612 25.8464 22.1562 24.4297 22.1562ZM24.25 14.5781C23.6667 14.5781 23.1771 14.7917 22.7812 15.2188C22.3854 15.6406 22.1406 16.2344 22.0469 17H26.2812V16.8906C26.2396 16.1562 26.0417 15.5885 25.6875 15.1875C25.3333 14.7812 24.8542 14.5781 24.25 14.5781ZM32.0859 20.0391L34.1797 13.5469H35.6562L32.625 22H31.5234L28.4609 13.5469H29.9375L32.0859 20.0391ZM38.6172 22H37.1719V13.5469H38.6172V22ZM37.0547 11.3047C37.0547 11.0703 37.125 10.8724 37.2656 10.7109C37.4115 10.5495 37.625 10.4688 37.9062 10.4688C38.1875 10.4688 38.401 10.5495 38.5469 10.7109C38.6927 10.8724 38.7656 11.0703 38.7656 11.3047C38.7656 11.5391 38.6927 11.7344 38.5469 11.8906C38.401 12.0469 38.1875 12.125 37.9062 12.125C37.625 12.125 37.4115 12.0469 37.2656 11.8906C37.125 11.7344 37.0547 11.5391 37.0547 11.3047ZM42.3047 13.5469L42.3516 14.6094C42.9974 13.7969 43.8411 13.3906 44.8828 13.3906C46.6693 13.3906 47.5703 14.3984 47.5859 16.4141V22H46.1406V16.4062C46.1354 15.7969 45.9948 15.3464 45.7188 15.0547C45.4479 14.763 45.0234 14.6172 44.4453 14.6172C43.9766 14.6172 43.5651 14.7422 43.2109 14.9922C42.8568 15.2422 42.5807 15.5703 42.3828 15.9766V22H40.9375V13.5469H42.3047ZM49.7969 21.2422C49.7969 20.9922 49.8698 20.7839 50.0156 20.6172C50.1667 20.4505 50.3906 20.3672 50.6875 20.3672C50.9844 20.3672 51.2083 20.4505 51.3594 20.6172C51.5156 20.7839 51.5938 20.9922 51.5938 21.2422C51.5938 21.4818 51.5156 21.6823 51.3594 21.8438C51.2083 22.0052 50.9844 22.0859 50.6875 22.0859C50.3906 22.0859 50.1667 22.0052 50.0156 21.8438C49.8698 21.6823 49.7969 21.4818 49.7969 21.2422ZM54.2109 22V10.625H57.9297C59.1641 10.625 60.0911 10.8802 60.7109 11.3906C61.3359 11.901 61.6484 12.6562 61.6484 13.6562C61.6484 14.1875 61.4974 14.6589 61.1953 15.0703C60.8932 15.4766 60.4818 15.7917 59.9609 16.0156C60.5755 16.1875 61.0599 16.5156 61.4141 17C61.7734 17.4792 61.9531 18.0521 61.9531 18.7188C61.9531 19.7396 61.6224 20.5417 60.9609 21.125C60.2995 21.7083 59.3646 22 58.1562 22H54.2109ZM55.7109 16.6797V20.7734H58.1875C58.8854 20.7734 59.4349 20.5938 59.8359 20.2344C60.2422 19.8698 60.4453 19.3698 60.4453 18.7344C60.4453 17.3646 59.7005 16.6797 58.2109 16.6797H55.7109ZM55.7109 15.4766H57.9766C58.6328 15.4766 59.1562 15.3125 59.5469 14.9844C59.9427 14.6562 60.1406 14.2109 60.1406 13.6484C60.1406 13.0234 59.9583 12.5703 59.5938 12.2891C59.2292 12.0026 58.6745 11.8594 57.9297 11.8594H55.7109V15.4766ZM66.7188 19.8828L68.6875 13.5469H70.2344L66.8359 23.3047C66.3099 24.7109 65.474 25.4141 64.3281 25.4141L64.0547 25.3906L63.5156 25.2891V24.1172L63.9062 24.1484C64.3958 24.1484 64.776 24.0495 65.0469 23.8516C65.3229 23.6536 65.5495 23.2917 65.7266 22.7656L66.0469 21.9062L63.0312 13.5469H64.6094L66.7188 19.8828ZM75.6172 14.8438C75.3984 14.8073 75.1615 14.7891 74.9062 14.7891C73.9583 14.7891 73.3151 15.1927 72.9766 16V22H71.5312V13.5469H72.9375L72.9609 14.5234C73.4349 13.7682 74.1068 13.3906 74.9766 13.3906C75.2578 13.3906 75.4714 13.4271 75.6172 13.5V14.8438ZM78.3203 13.5469L78.3672 14.6094C79.013 13.7969 79.8568 13.3906 80.8984 13.3906C82.6849 13.3906 83.5859 14.3984 83.6016 16.4141V22H82.1562V16.4062C82.151 15.7969 82.0104 15.3464 81.7344 15.0547C81.4635 14.763 81.0391 14.6172 80.4609 14.6172C79.9922 14.6172 79.5807 14.7422 79.2266 14.9922C78.8724 15.2422 78.5964 15.5703 78.3984 15.9766V22H76.9531V13.5469H78.3203ZM89.2891 22.1562C88.1432 22.1562 87.2109 21.7812 86.4922 21.0312C85.7734 20.276 85.4141 19.2682 85.4141 18.0078V17.7422C85.4141 16.9036 85.5729 16.1562 85.8906 15.5C86.2135 14.8385 86.6615 14.3229 87.2344 13.9531C87.8125 13.5781 88.4375 13.3906 89.1094 13.3906C90.2083 13.3906 91.0625 13.7526 91.6719 14.4766C92.2812 15.2005 92.5859 16.237 92.5859 17.5859V18.1875H86.8594C86.8802 19.0208 87.1224 19.6953 87.5859 20.2109C88.0547 20.7214 88.6484 20.9766 89.3672 20.9766C89.8776 20.9766 90.3099 20.8724 90.6641 20.6641C91.0182 20.4557 91.3281 20.1797 91.5938 19.8359L92.4766 20.5234C91.7682 21.612 90.7057 22.1562 89.2891 22.1562ZM89.1094 14.5781C88.526 14.5781 88.0365 14.7917 87.6406 15.2188C87.2448 15.6406 87 16.2344 86.9062 17H91.1406V16.8906C91.099 16.1562 90.901 15.5885 90.5469 15.1875C90.1927 14.7812 89.7135 14.5781 89.1094 14.5781ZM106.75 18.0781C106.688 19.3385 106.375 20.3333 105.812 21.0625C105.25 21.7917 104.497 22.1562 103.555 22.1562C102.581 22.1562 101.956 21.7188 101.68 20.8438C101.398 21.2865 101.076 21.6172 100.711 21.8359C100.352 22.0495 99.9792 22.1562 99.5938 22.1562C98.8542 22.1562 98.2943 21.8542 97.9141 21.25C97.5339 20.6458 97.3932 19.8099 97.4922 18.7422C97.5703 17.8828 97.7656 17.1172 98.0781 16.4453C98.3958 15.7682 98.8021 15.237 99.2969 14.8516C99.7969 14.4661 100.32 14.2734 100.867 14.2734C101.289 14.2734 101.667 14.3307 102 14.4453C102.333 14.5547 102.708 14.7734 103.125 15.1016L102.719 19.4297C102.62 20.6328 102.953 21.2344 103.719 21.2344C104.307 21.2344 104.784 20.9427 105.148 20.3594C105.513 19.776 105.711 19.0156 105.742 18.0781C105.841 16.0521 105.464 14.5078 104.609 13.4453C103.76 12.3828 102.466 11.8516 100.727 11.8516C99.6797 11.8516 98.75 12.112 97.9375 12.6328C97.125 13.1484 96.4844 13.8958 96.0156 14.875C95.5469 15.8542 95.2839 16.9844 95.2266 18.2656C95.1641 19.5573 95.3203 20.6797 95.6953 21.6328C96.0703 22.5807 96.6406 23.3047 97.4062 23.8047C98.1771 24.3099 99.1068 24.5625 100.195 24.5625C100.664 24.5625 101.133 24.5052 101.602 24.3906C102.076 24.276 102.469 24.1276 102.781 23.9453L103.07 24.8438C102.747 25.0469 102.318 25.2135 101.781 25.3438C101.25 25.474 100.711 25.5391 100.164 25.5391C98.862 25.5391 97.7422 25.2448 96.8047 24.6562C95.8672 24.0729 95.1641 23.2292 94.6953 22.125C94.2318 21.026 94.0312 19.7396 94.0938 18.2656C94.1562 16.8333 94.4766 15.5469 95.0547 14.4062C95.6328 13.2604 96.4167 12.3776 97.4062 11.7578C98.3958 11.1328 99.513 10.8203 100.758 10.8203C102.055 10.8203 103.167 11.112 104.094 11.6953C105.021 12.2786 105.711 13.1198 106.164 14.2188C106.617 15.3177 106.812 16.6042 106.75 18.0781ZM98.7344 18.7422C98.6615 19.4818 98.7292 20.0495 98.9375 20.4453C99.151 20.8411 99.487 21.0391 99.9453 21.0391C100.258 21.0391 100.557 20.9062 100.844 20.6406C101.135 20.375 101.375 19.9948 101.562 19.5L101.57 19.4297L101.93 15.5C101.638 15.349 101.326 15.2734 100.992 15.2734C100.383 15.2734 99.8776 15.5833 99.4766 16.2031C99.0807 16.8229 98.8333 17.6693 98.7344 18.7422ZM108.297 17.7031C108.297 16.3854 108.602 15.3385 109.211 14.5625C109.82 13.7812 110.628 13.3906 111.633 13.3906C112.664 13.3906 113.469 13.7552 114.047 14.4844L114.117 13.5469H115.438V21.7969C115.438 22.8906 115.112 23.7526 114.461 24.3828C113.815 25.013 112.945 25.3281 111.852 25.3281C111.242 25.3281 110.646 25.1979 110.062 24.9375C109.479 24.6771 109.034 24.3203 108.727 23.8672L109.477 23C110.096 23.7656 110.854 24.1484 111.75 24.1484C112.453 24.1484 113 23.9505 113.391 23.5547C113.786 23.1589 113.984 22.6016 113.984 21.8828V21.1562C113.406 21.8229 112.617 22.1562 111.617 22.1562C110.628 22.1562 109.826 21.7578 109.211 20.9609C108.602 20.1641 108.297 19.0781 108.297 17.7031ZM109.75 17.8672C109.75 18.8203 109.945 19.5703 110.336 20.1172C110.727 20.6589 111.273 20.9297 111.977 20.9297C112.888 20.9297 113.557 20.5156 113.984 19.6875V15.8281C113.542 15.0208 112.878 14.6172 111.992 14.6172C111.289 14.6172 110.74 14.8906 110.344 15.4375C109.948 15.9844 109.75 16.7943 109.75 17.8672ZM118.984 13.5469L119.023 14.4844C119.643 13.7552 120.479 13.3906 121.531 13.3906C122.714 13.3906 123.518 13.8438 123.945 14.75C124.227 14.3438 124.591 14.0156 125.039 13.7656C125.492 13.5156 126.026 13.3906 126.641 13.3906C128.495 13.3906 129.438 14.3724 129.469 16.3359V22H128.023V16.4219C128.023 15.8177 127.885 15.3672 127.609 15.0703C127.333 14.7682 126.87 14.6172 126.219 14.6172C125.682 14.6172 125.237 14.7786 124.883 15.1016C124.529 15.4193 124.323 15.849 124.266 16.3906V22H122.812V16.4609C122.812 15.2318 122.211 14.6172 121.008 14.6172C120.06 14.6172 119.411 15.0208 119.062 15.8281V22H117.617V13.5469H118.984ZM136.875 22C136.792 21.8333 136.724 21.5365 136.672 21.1094C136 21.8073 135.198 22.1562 134.266 22.1562C133.432 22.1562 132.747 21.9219 132.211 21.4531C131.68 20.9792 131.414 20.3802 131.414 19.6562C131.414 18.776 131.747 18.0938 132.414 17.6094C133.086 17.1198 134.029 16.875 135.242 16.875H136.648V16.2109C136.648 15.7057 136.497 15.3047 136.195 15.0078C135.893 14.7057 135.448 14.5547 134.859 14.5547C134.344 14.5547 133.911 14.6849 133.562 14.9453C133.214 15.2057 133.039 15.5208 133.039 15.8906H131.586C131.586 15.4688 131.734 15.0625 132.031 14.6719C132.333 14.276 132.74 13.9635 133.25 13.7344C133.766 13.5052 134.331 13.3906 134.945 13.3906C135.919 13.3906 136.682 13.6354 137.234 14.125C137.786 14.6094 138.073 15.2786 138.094 16.1328V20.0234C138.094 20.7995 138.193 21.4167 138.391 21.875V22H136.875ZM134.477 20.8984C134.93 20.8984 135.359 20.7812 135.766 20.5469C136.172 20.3125 136.466 20.0078 136.648 19.6328V17.8984H135.516C133.745 17.8984 132.859 18.4167 132.859 19.4531C132.859 19.9062 133.01 20.2604 133.312 20.5156C133.615 20.7708 134.003 20.8984 134.477 20.8984ZM141.93 22H140.484V13.5469H141.93V22ZM140.367 11.3047C140.367 11.0703 140.438 10.8724 140.578 10.7109C140.724 10.5495 140.938 10.4688 141.219 10.4688C141.5 10.4688 141.714 10.5495 141.859 10.7109C142.005 10.8724 142.078 11.0703 142.078 11.3047C142.078 11.5391 142.005 11.7344 141.859 11.8906C141.714 12.0469 141.5 12.125 141.219 12.125C140.938 12.125 140.724 12.0469 140.578 11.8906C140.438 11.7344 140.367 11.5391 140.367 11.3047ZM145.82 22H144.375V10H145.82V22ZM148.172 21.2422C148.172 20.9922 148.245 20.7839 148.391 20.6172C148.542 20.4505 148.766 20.3672 149.062 20.3672C149.359 20.3672 149.583 20.4505 149.734 20.6172C149.891 20.7839 149.969 20.9922 149.969 21.2422C149.969 21.4818 149.891 21.6823 149.734 21.8438C149.583 22.0052 149.359 22.0859 149.062 22.0859C148.766 22.0859 148.542 22.0052 148.391 21.8438C148.245 21.6823 148.172 21.4818 148.172 21.2422ZM155.75 20.9766C156.266 20.9766 156.716 20.8203 157.102 20.5078C157.487 20.1953 157.701 19.8047 157.742 19.3359H159.109C159.083 19.8203 158.917 20.2812 158.609 20.7188C158.302 21.1562 157.891 21.5052 157.375 21.7656C156.865 22.026 156.323 22.1562 155.75 22.1562C154.599 22.1562 153.682 21.7734 153 21.0078C152.323 20.237 151.984 19.1849 151.984 17.8516V17.6094C151.984 16.7865 152.135 16.0547 152.438 15.4141C152.74 14.7734 153.172 14.276 153.734 13.9219C154.302 13.5677 154.971 13.3906 155.742 13.3906C156.69 13.3906 157.477 13.6745 158.102 14.2422C158.732 14.8099 159.068 15.5469 159.109 16.4531H157.742C157.701 15.9062 157.492 15.4583 157.117 15.1094C156.747 14.7552 156.289 14.5781 155.742 14.5781C155.008 14.5781 154.438 14.8438 154.031 15.375C153.63 15.901 153.43 16.6641 153.43 17.6641V17.9375C153.43 18.9115 153.63 19.6615 154.031 20.1875C154.432 20.7135 155.005 20.9766 155.75 20.9766ZM160.352 17.6953C160.352 16.8672 160.513 16.1224 160.836 15.4609C161.164 14.7995 161.617 14.2891 162.195 13.9297C162.779 13.5703 163.443 13.3906 164.188 13.3906C165.339 13.3906 166.268 13.7891 166.977 14.5859C167.69 15.3828 168.047 16.4427 168.047 17.7656V17.8672C168.047 18.6901 167.888 19.4297 167.57 20.0859C167.258 20.737 166.807 21.2448 166.219 21.6094C165.635 21.974 164.964 22.1562 164.203 22.1562C163.057 22.1562 162.128 21.7578 161.414 20.9609C160.706 20.1641 160.352 19.1094 160.352 17.7969V17.6953ZM161.805 17.8672C161.805 18.8047 162.021 19.5573 162.453 20.125C162.891 20.6927 163.474 20.9766 164.203 20.9766C164.938 20.9766 165.521 20.6901 165.953 20.1172C166.385 19.5391 166.602 18.7318 166.602 17.6953C166.602 16.7682 166.38 16.0182 165.938 15.4453C165.5 14.8672 164.917 14.5781 164.188 14.5781C163.474 14.5781 162.898 14.862 162.461 15.4297C162.023 15.9974 161.805 16.8099 161.805 17.8672ZM171.219 13.5469L171.258 14.4844C171.878 13.7552 172.714 13.3906 173.766 13.3906C174.948 13.3906 175.753 13.8438 176.18 14.75C176.461 14.3438 176.826 14.0156 177.273 13.7656C177.727 13.5156 178.26 13.3906 178.875 13.3906C180.729 13.3906 181.672 14.3724 181.703 16.3359V22H180.258V16.4219C180.258 15.8177 180.12 15.3672 179.844 15.0703C179.568 14.7682 179.104 14.6172 178.453 14.6172C177.917 14.6172 177.471 14.7786 177.117 15.1016C176.763 15.4193 176.557 15.849 176.5 16.3906V22H175.047V16.4609C175.047 15.2318 174.445 14.6172 173.242 14.6172C172.294 14.6172 171.646 15.0208 171.297 15.8281V22H169.852V13.5469H171.219ZM183.844 24.2656L183.023 23.7031C183.513 23.0208 183.768 22.3177 183.789 21.5938V20.2891H185.203V21.4219C185.203 21.9479 185.073 22.474 184.812 23C184.557 23.526 184.234 23.9479 183.844 24.2656ZM191.031 21.2422C191.031 20.9922 191.104 20.7839 191.25 20.6172C191.401 20.4505 191.625 20.3672 191.922 20.3672C192.219 20.3672 192.443 20.4505 192.594 20.6172C192.75 20.7839 192.828 20.9922 192.828 21.2422C192.828 21.4818 192.75 21.6823 192.594 21.8438C192.443 22.0052 192.219 22.0859 191.922 22.0859C191.625 22.0859 191.401 22.0052 191.25 21.8438C191.104 21.6823 191.031 21.4818 191.031 21.2422ZM195.25 21.2422C195.25 20.9922 195.323 20.7839 195.469 20.6172C195.62 20.4505 195.844 20.3672 196.141 20.3672C196.438 20.3672 196.661 20.4505 196.812 20.6172C196.969 20.7839 197.047 20.9922 197.047 21.2422C197.047 21.4818 196.969 21.6823 196.812 21.8438C196.661 22.0052 196.438 22.0859 196.141 22.0859C195.844 22.0859 195.62 22.0052 195.469 21.8438C195.323 21.6823 195.25 21.4818 195.25 21.2422ZM199.469 21.2422C199.469 20.9922 199.542 20.7839 199.688 20.6172C199.839 20.4505 200.062 20.3672 200.359 20.3672C200.656 20.3672 200.88 20.4505 201.031 20.6172C201.188 20.7839 201.266 20.9922 201.266 21.2422C201.266 21.4818 201.188 21.6823 201.031 21.8438C200.88 22.0052 200.656 22.0859 200.359 22.0859C200.062 22.0859 199.839 22.0052 199.688 21.8438C199.542 21.6823 199.469 21.4818 199.469 21.2422Z"
    fill="black" />
  <rect x="364" y="5" width="29" height="22" rx="3" fill="#666666" />
  <path
    d="M374.234 15.8984H377.406V17.2656H374.234V20.8594H372.781V17.2656H369.609V15.8984H372.781V12.5781H374.234V15.8984ZM385.125 18.1797H386.703V19.3594H385.125V22H383.672V19.3594H378.492V18.5078L383.586 10.625H385.125V18.1797ZM380.133 18.1797H383.672V12.6016L383.5 12.9141L380.133 18.1797Z"
    fill="#F0F0F0" />
</svg>
