<svg width="403" height="64" viewBox="0 0 403 64" fill="none" xmlns="http://www.w3.org/2000/svg">
  <rect x="0.5" y="0.5" width="402" height="31" fill="white" stroke="#777777" />
  <path
    d="M16.0859 10.625H17.5938V18.6797C17.5938 19.7682 17.2656 20.6198 16.6094 21.2344C15.9583 21.849 15.0885 22.1562 14 22.1562C12.8698 22.1562 11.9896 21.8672 11.3594 21.2891C10.7292 20.7109 10.4141 19.901 10.4141 18.8594H11.9141C11.9141 19.5104 12.0911 20.0182 12.4453 20.3828C12.8047 20.7474 13.3229 20.9297 14 20.9297C14.6198 20.9297 15.1198 20.7344 15.5 20.3438C15.8854 19.9531 16.0807 19.4062 16.0859 18.7031V10.625ZM19.5391 17.6953C19.5391 16.8672 19.7005 16.1224 20.0234 15.4609C20.3516 14.7995 20.8047 14.2891 21.3828 13.9297C21.9661 13.5703 22.6302 13.3906 23.375 13.3906C24.526 13.3906 25.4557 13.7891 26.1641 14.5859C26.8776 15.3828 27.2344 16.4427 27.2344 17.7656V17.8672C27.2344 18.6901 27.0755 19.4297 26.7578 20.0859C26.4453 20.737 25.9948 21.2448 25.4062 21.6094C24.8229 21.974 24.151 22.1562 23.3906 22.1562C22.2448 22.1562 21.3151 21.7578 20.6016 20.9609C19.8932 20.1641 19.5391 19.1094 19.5391 17.7969V17.6953ZM20.9922 17.8672C20.9922 18.8047 21.2083 19.5573 21.6406 20.125C22.0781 20.6927 22.6615 20.9766 23.3906 20.9766C24.125 20.9766 24.7083 20.6901 25.1406 20.1172C25.5729 19.5391 25.7891 18.7318 25.7891 17.6953C25.7891 16.7682 25.5677 16.0182 25.125 15.4453C24.6875 14.8672 24.1042 14.5781 23.375 14.5781C22.6615 14.5781 22.0859 14.862 21.6484 15.4297C21.2109 15.9974 20.9922 16.8099 20.9922 17.8672ZM30.4922 14.5703C31.1328 13.7839 31.9661 13.3906 32.9922 13.3906C34.7786 13.3906 35.6797 14.3984 35.6953 16.4141V22H34.25V16.4062C34.2448 15.7969 34.1042 15.3464 33.8281 15.0547C33.5573 14.763 33.1328 14.6172 32.5547 14.6172C32.0859 14.6172 31.6745 14.7422 31.3203 14.9922C30.9661 15.2422 30.6901 15.5703 30.4922 15.9766V22H29.0469V10H30.4922V14.5703ZM39.2266 13.5469L39.2734 14.6094C39.9193 13.7969 40.763 13.3906 41.8047 13.3906C43.5911 13.3906 44.4922 14.3984 44.5078 16.4141V22H43.0625V16.4062C43.0573 15.7969 42.9167 15.3464 42.6406 15.0547C42.3698 14.763 41.9453 14.6172 41.3672 14.6172C40.8984 14.6172 40.487 14.7422 40.1328 14.9922C39.7786 15.2422 39.5026 15.5703 39.3047 15.9766V22H37.8594V13.5469H39.2266ZM46.7188 21.2422C46.7188 20.9922 46.7917 20.7839 46.9375 20.6172C47.0885 20.4505 47.3125 20.3672 47.6094 20.3672C47.9062 20.3672 48.1302 20.4505 48.2812 20.6172C48.4375 20.7839 48.5156 20.9922 48.5156 21.2422C48.5156 21.4818 48.4375 21.6823 48.2812 21.8438C48.1302 22.0052 47.9062 22.0859 47.6094 22.0859C47.3125 22.0859 47.0885 22.0052 46.9375 21.8438C46.7917 21.6823 46.7188 21.4818 46.7188 21.2422ZM54.4844 16.9297C53.1979 16.5599 52.2604 16.1068 51.6719 15.5703C51.0885 15.0286 50.7969 14.362 50.7969 13.5703C50.7969 12.6745 51.1536 11.9349 51.8672 11.3516C52.5859 10.763 53.5182 10.4688 54.6641 10.4688C55.4453 10.4688 56.1406 10.6198 56.75 10.9219C57.3646 11.224 57.8385 11.6406 58.1719 12.1719C58.5104 12.7031 58.6797 13.2839 58.6797 13.9141H57.1719C57.1719 13.2266 56.9531 12.6875 56.5156 12.2969C56.0781 11.901 55.4609 11.7031 54.6641 11.7031C53.9245 11.7031 53.3464 11.8672 52.9297 12.1953C52.5182 12.5182 52.3125 12.9688 52.3125 13.5469C52.3125 14.0104 52.5078 14.4036 52.8984 14.7266C53.2943 15.0443 53.9635 15.3359 54.9062 15.6016C55.8542 15.8672 56.5938 16.1615 57.125 16.4844C57.6615 16.8021 58.0573 17.1745 58.3125 17.6016C58.5729 18.0286 58.7031 18.5312 58.7031 19.1094C58.7031 20.0312 58.3438 20.7708 57.625 21.3281C56.9062 21.8802 55.9453 22.1562 54.7422 22.1562C53.9609 22.1562 53.2318 22.0078 52.5547 21.7109C51.8776 21.4089 51.3542 20.9974 50.9844 20.4766C50.6198 19.9557 50.4375 19.3646 50.4375 18.7031H51.9453C51.9453 19.3906 52.1979 19.9349 52.7031 20.3359C53.2135 20.7318 53.8932 20.9297 54.7422 20.9297C55.5339 20.9297 56.1406 20.7682 56.5625 20.4453C56.9844 20.1224 57.1953 19.6823 57.1953 19.125C57.1953 18.5677 57 18.138 56.6094 17.8359C56.2188 17.5286 55.5104 17.2266 54.4844 16.9297ZM61.7656 13.5469L61.8047 14.4844C62.4245 13.7552 63.2604 13.3906 64.3125 13.3906C65.4948 13.3906 66.2995 13.8438 66.7266 14.75C67.0078 14.3438 67.3724 14.0156 67.8203 13.7656C68.2734 13.5156 68.8073 13.3906 69.4219 13.3906C71.276 13.3906 72.2188 14.3724 72.25 16.3359V22H70.8047V16.4219C70.8047 15.8177 70.6667 15.3672 70.3906 15.0703C70.1146 14.7682 69.651 14.6172 69 14.6172C68.4635 14.6172 68.0182 14.7786 67.6641 15.1016C67.3099 15.4193 67.1042 15.849 67.0469 16.3906V22H65.5938V16.4609C65.5938 15.2318 64.9922 14.6172 63.7891 14.6172C62.8411 14.6172 62.1927 15.0208 61.8438 15.8281V22H60.3984V13.5469H61.7656ZM76.0078 22H74.5625V13.5469H76.0078V22ZM74.4453 11.3047C74.4453 11.0703 74.5156 10.8724 74.6562 10.7109C74.8021 10.5495 75.0156 10.4688 75.2969 10.4688C75.5781 10.4688 75.7917 10.5495 75.9375 10.7109C76.0833 10.8724 76.1562 11.0703 76.1562 11.3047C76.1562 11.5391 76.0833 11.7344 75.9375 11.8906C75.7917 12.0469 75.5781 12.125 75.2969 12.125C75.0156 12.125 74.8021 12.0469 74.6562 11.8906C74.5156 11.7344 74.4453 11.5391 74.4453 11.3047ZM80.2891 11.5V13.5469H81.8672V14.6641H80.2891V19.9062C80.2891 20.2448 80.3594 20.5 80.5 20.6719C80.6406 20.8385 80.8802 20.9219 81.2188 20.9219C81.3854 20.9219 81.6146 20.8906 81.9062 20.8281V22C81.526 22.1042 81.1562 22.1562 80.7969 22.1562C80.151 22.1562 79.6641 21.9609 79.3359 21.5703C79.0078 21.1797 78.8438 20.625 78.8438 19.9062V14.6641H77.3047V13.5469H78.8438V11.5H80.2891ZM85.0078 14.5703C85.6484 13.7839 86.4818 13.3906 87.5078 13.3906C89.2943 13.3906 90.1953 14.3984 90.2109 16.4141V22H88.7656V16.4062C88.7604 15.7969 88.6198 15.3464 88.3438 15.0547C88.0729 14.763 87.6484 14.6172 87.0703 14.6172C86.6016 14.6172 86.1901 14.7422 85.8359 14.9922C85.4818 15.2422 85.2057 15.5703 85.0078 15.9766V22H83.5625V10H85.0078V14.5703ZM104.859 18.0781C104.797 19.3385 104.484 20.3333 103.922 21.0625C103.359 21.7917 102.607 22.1562 101.664 22.1562C100.69 22.1562 100.065 21.7188 99.7891 20.8438C99.5078 21.2865 99.1849 21.6172 98.8203 21.8359C98.4609 22.0495 98.0885 22.1562 97.7031 22.1562C96.9635 22.1562 96.4036 21.8542 96.0234 21.25C95.6432 20.6458 95.5026 19.8099 95.6016 18.7422C95.6797 17.8828 95.875 17.1172 96.1875 16.4453C96.5052 15.7682 96.9115 15.237 97.4062 14.8516C97.9062 14.4661 98.4297 14.2734 98.9766 14.2734C99.3984 14.2734 99.776 14.3307 100.109 14.4453C100.443 14.5547 100.818 14.7734 101.234 15.1016L100.828 19.4297C100.729 20.6328 101.062 21.2344 101.828 21.2344C102.417 21.2344 102.893 20.9427 103.258 20.3594C103.622 19.776 103.82 19.0156 103.852 18.0781C103.951 16.0521 103.573 14.5078 102.719 13.4453C101.87 12.3828 100.576 11.8516 98.8359 11.8516C97.7891 11.8516 96.8594 12.112 96.0469 12.6328C95.2344 13.1484 94.5938 13.8958 94.125 14.875C93.6562 15.8542 93.3932 16.9844 93.3359 18.2656C93.2734 19.5573 93.4297 20.6797 93.8047 21.6328C94.1797 22.5807 94.75 23.3047 95.5156 23.8047C96.2865 24.3099 97.2161 24.5625 98.3047 24.5625C98.7734 24.5625 99.2422 24.5052 99.7109 24.3906C100.185 24.276 100.578 24.1276 100.891 23.9453L101.18 24.8438C100.857 25.0469 100.427 25.2135 99.8906 25.3438C99.3594 25.474 98.8203 25.5391 98.2734 25.5391C96.9714 25.5391 95.8516 25.2448 94.9141 24.6562C93.9766 24.0729 93.2734 23.2292 92.8047 22.125C92.3411 21.026 92.1406 19.7396 92.2031 18.2656C92.2656 16.8333 92.5859 15.5469 93.1641 14.4062C93.7422 13.2604 94.526 12.3776 95.5156 11.7578C96.5052 11.1328 97.6224 10.8203 98.8672 10.8203C100.164 10.8203 101.276 11.112 102.203 11.6953C103.13 12.2786 103.82 13.1198 104.273 14.2188C104.727 15.3177 104.922 16.6042 104.859 18.0781ZM96.8438 18.7422C96.7708 19.4818 96.8385 20.0495 97.0469 20.4453C97.2604 20.8411 97.5964 21.0391 98.0547 21.0391C98.3672 21.0391 98.6667 20.9062 98.9531 20.6406C99.2448 20.375 99.4844 19.9948 99.6719 19.5L99.6797 19.4297L100.039 15.5C99.7474 15.349 99.4349 15.2734 99.1016 15.2734C98.4922 15.2734 97.987 15.5833 97.5859 16.2031C97.1901 16.8229 96.9427 17.6693 96.8438 18.7422ZM106.406 17.7031C106.406 16.3854 106.711 15.3385 107.32 14.5625C107.93 13.7812 108.737 13.3906 109.742 13.3906C110.773 13.3906 111.578 13.7552 112.156 14.4844L112.227 13.5469H113.547V21.7969C113.547 22.8906 113.221 23.7526 112.57 24.3828C111.924 25.013 111.055 25.3281 109.961 25.3281C109.352 25.3281 108.755 25.1979 108.172 24.9375C107.589 24.6771 107.143 24.3203 106.836 23.8672L107.586 23C108.206 23.7656 108.964 24.1484 109.859 24.1484C110.562 24.1484 111.109 23.9505 111.5 23.5547C111.896 23.1589 112.094 22.6016 112.094 21.8828V21.1562C111.516 21.8229 110.727 22.1562 109.727 22.1562C108.737 22.1562 107.935 21.7578 107.32 20.9609C106.711 20.1641 106.406 19.0781 106.406 17.7031ZM107.859 17.8672C107.859 18.8203 108.055 19.5703 108.445 20.1172C108.836 20.6589 109.383 20.9297 110.086 20.9297C110.997 20.9297 111.667 20.5156 112.094 19.6875V15.8281C111.651 15.0208 110.987 14.6172 110.102 14.6172C109.398 14.6172 108.849 14.8906 108.453 15.4375C108.057 15.9844 107.859 16.7943 107.859 17.8672ZM117.094 13.5469L117.133 14.4844C117.753 13.7552 118.589 13.3906 119.641 13.3906C120.823 13.3906 121.628 13.8438 122.055 14.75C122.336 14.3438 122.701 14.0156 123.148 13.7656C123.602 13.5156 124.135 13.3906 124.75 13.3906C126.604 13.3906 127.547 14.3724 127.578 16.3359V22H126.133V16.4219C126.133 15.8177 125.995 15.3672 125.719 15.0703C125.443 14.7682 124.979 14.6172 124.328 14.6172C123.792 14.6172 123.346 14.7786 122.992 15.1016C122.638 15.4193 122.432 15.849 122.375 16.3906V22H120.922V16.4609C120.922 15.2318 120.32 14.6172 119.117 14.6172C118.169 14.6172 117.521 15.0208 117.172 15.8281V22H115.727V13.5469H117.094ZM134.984 22C134.901 21.8333 134.833 21.5365 134.781 21.1094C134.109 21.8073 133.307 22.1562 132.375 22.1562C131.542 22.1562 130.857 21.9219 130.32 21.4531C129.789 20.9792 129.523 20.3802 129.523 19.6562C129.523 18.776 129.857 18.0938 130.523 17.6094C131.195 17.1198 132.138 16.875 133.352 16.875H134.758V16.2109C134.758 15.7057 134.607 15.3047 134.305 15.0078C134.003 14.7057 133.557 14.5547 132.969 14.5547C132.453 14.5547 132.021 14.6849 131.672 14.9453C131.323 15.2057 131.148 15.5208 131.148 15.8906H129.695C129.695 15.4688 129.844 15.0625 130.141 14.6719C130.443 14.276 130.849 13.9635 131.359 13.7344C131.875 13.5052 132.44 13.3906 133.055 13.3906C134.029 13.3906 134.792 13.6354 135.344 14.125C135.896 14.6094 136.182 15.2786 136.203 16.1328V20.0234C136.203 20.7995 136.302 21.4167 136.5 21.875V22H134.984ZM132.586 20.8984C133.039 20.8984 133.469 20.7812 133.875 20.5469C134.281 20.3125 134.576 20.0078 134.758 19.6328V17.8984H133.625C131.854 17.8984 130.969 18.4167 130.969 19.4531C130.969 19.9062 131.12 20.2604 131.422 20.5156C131.724 20.7708 132.112 20.8984 132.586 20.8984ZM140.039 22H138.594V13.5469H140.039V22ZM138.477 11.3047C138.477 11.0703 138.547 10.8724 138.688 10.7109C138.833 10.5495 139.047 10.4688 139.328 10.4688C139.609 10.4688 139.823 10.5495 139.969 10.7109C140.115 10.8724 140.188 11.0703 140.188 11.3047C140.188 11.5391 140.115 11.7344 139.969 11.8906C139.823 12.0469 139.609 12.125 139.328 12.125C139.047 12.125 138.833 12.0469 138.688 11.8906C138.547 11.7344 138.477 11.5391 138.477 11.3047ZM143.93 22H142.484V10H143.93V22ZM146.281 21.2422C146.281 20.9922 146.354 20.7839 146.5 20.6172C146.651 20.4505 146.875 20.3672 147.172 20.3672C147.469 20.3672 147.693 20.4505 147.844 20.6172C148 20.7839 148.078 20.9922 148.078 21.2422C148.078 21.4818 148 21.6823 147.844 21.8438C147.693 22.0052 147.469 22.0859 147.172 22.0859C146.875 22.0859 146.651 22.0052 146.5 21.8438C146.354 21.6823 146.281 21.4818 146.281 21.2422ZM153.859 20.9766C154.375 20.9766 154.826 20.8203 155.211 20.5078C155.596 20.1953 155.81 19.8047 155.852 19.3359H157.219C157.193 19.8203 157.026 20.2812 156.719 20.7188C156.411 21.1562 156 21.5052 155.484 21.7656C154.974 22.026 154.432 22.1562 153.859 22.1562C152.708 22.1562 151.792 21.7734 151.109 21.0078C150.432 20.237 150.094 19.1849 150.094 17.8516V17.6094C150.094 16.7865 150.245 16.0547 150.547 15.4141C150.849 14.7734 151.281 14.276 151.844 13.9219C152.411 13.5677 153.081 13.3906 153.852 13.3906C154.799 13.3906 155.586 13.6745 156.211 14.2422C156.841 14.8099 157.177 15.5469 157.219 16.4531H155.852C155.81 15.9062 155.602 15.4583 155.227 15.1094C154.857 14.7552 154.398 14.5781 153.852 14.5781C153.117 14.5781 152.547 14.8438 152.141 15.375C151.74 15.901 151.539 16.6641 151.539 17.6641V17.9375C151.539 18.9115 151.74 19.6615 152.141 20.1875C152.542 20.7135 153.115 20.9766 153.859 20.9766ZM158.461 17.6953C158.461 16.8672 158.622 16.1224 158.945 15.4609C159.273 14.7995 159.727 14.2891 160.305 13.9297C160.888 13.5703 161.552 13.3906 162.297 13.3906C163.448 13.3906 164.378 13.7891 165.086 14.5859C165.799 15.3828 166.156 16.4427 166.156 17.7656V17.8672C166.156 18.6901 165.997 19.4297 165.68 20.0859C165.367 20.737 164.917 21.2448 164.328 21.6094C163.745 21.974 163.073 22.1562 162.312 22.1562C161.167 22.1562 160.237 21.7578 159.523 20.9609C158.815 20.1641 158.461 19.1094 158.461 17.7969V17.6953ZM159.914 17.8672C159.914 18.8047 160.13 19.5573 160.562 20.125C161 20.6927 161.583 20.9766 162.312 20.9766C163.047 20.9766 163.63 20.6901 164.062 20.1172C164.495 19.5391 164.711 18.7318 164.711 17.6953C164.711 16.7682 164.49 16.0182 164.047 15.4453C163.609 14.8672 163.026 14.5781 162.297 14.5781C161.583 14.5781 161.008 14.862 160.57 15.4297C160.133 15.9974 159.914 16.8099 159.914 17.8672ZM169.328 13.5469L169.367 14.4844C169.987 13.7552 170.823 13.3906 171.875 13.3906C173.057 13.3906 173.862 13.8438 174.289 14.75C174.57 14.3438 174.935 14.0156 175.383 13.7656C175.836 13.5156 176.37 13.3906 176.984 13.3906C178.839 13.3906 179.781 14.3724 179.812 16.3359V22H178.367V16.4219C178.367 15.8177 178.229 15.3672 177.953 15.0703C177.677 14.7682 177.214 14.6172 176.562 14.6172C176.026 14.6172 175.581 14.7786 175.227 15.1016C174.872 15.4193 174.667 15.849 174.609 16.3906V22H173.156V16.4609C173.156 15.2318 172.555 14.6172 171.352 14.6172C170.404 14.6172 169.755 15.0208 169.406 15.8281V22H167.961V13.5469H169.328ZM181.953 24.2656L181.133 23.7031C181.622 23.0208 181.878 22.3177 181.898 21.5938V20.2891H183.312V21.4219C183.312 21.9479 183.182 22.474 182.922 23C182.667 23.526 182.344 23.9479 181.953 24.2656ZM194.102 10.625H195.609V18.6797C195.609 19.7682 195.281 20.6198 194.625 21.2344C193.974 21.849 193.104 22.1562 192.016 22.1562C190.885 22.1562 190.005 21.8672 189.375 21.2891C188.745 20.7109 188.43 19.901 188.43 18.8594H189.93C189.93 19.5104 190.107 20.0182 190.461 20.3828C190.82 20.7474 191.339 20.9297 192.016 20.9297C192.635 20.9297 193.135 20.7344 193.516 20.3438C193.901 19.9531 194.096 19.4062 194.102 18.7031V10.625ZM203.156 22C203.073 21.8333 203.005 21.5365 202.953 21.1094C202.281 21.8073 201.479 22.1562 200.547 22.1562C199.714 22.1562 199.029 21.9219 198.492 21.4531C197.961 20.9792 197.695 20.3802 197.695 19.6562C197.695 18.776 198.029 18.0938 198.695 17.6094C199.367 17.1198 200.31 16.875 201.523 16.875H202.93V16.2109C202.93 15.7057 202.779 15.3047 202.477 15.0078C202.174 14.7057 201.729 14.5547 201.141 14.5547C200.625 14.5547 200.193 14.6849 199.844 14.9453C199.495 15.2057 199.32 15.5208 199.32 15.8906H197.867C197.867 15.4688 198.016 15.0625 198.312 14.6719C198.615 14.276 199.021 13.9635 199.531 13.7344C200.047 13.5052 200.612 13.3906 201.227 13.3906C202.201 13.3906 202.964 13.6354 203.516 14.125C204.068 14.6094 204.354 15.2786 204.375 16.1328V20.0234C204.375 20.7995 204.474 21.4167 204.672 21.875V22H203.156ZM200.758 20.8984C201.211 20.8984 201.641 20.7812 202.047 20.5469C202.453 20.3125 202.747 20.0078 202.93 19.6328V17.8984H201.797C200.026 17.8984 199.141 18.4167 199.141 19.4531C199.141 19.9062 199.292 20.2604 199.594 20.5156C199.896 20.7708 200.284 20.8984 200.758 20.8984ZM208.008 13.5469L208.055 14.6094C208.701 13.7969 209.544 13.3906 210.586 13.3906C212.372 13.3906 213.273 14.3984 213.289 16.4141V22H211.844V16.4062C211.839 15.7969 211.698 15.3464 211.422 15.0547C211.151 14.763 210.727 14.6172 210.148 14.6172C209.68 14.6172 209.268 14.7422 208.914 14.9922C208.56 15.2422 208.284 15.5703 208.086 15.9766V22H206.641V13.5469H208.008ZM218.977 22.1562C217.831 22.1562 216.898 21.7812 216.18 21.0312C215.461 20.276 215.102 19.2682 215.102 18.0078V17.7422C215.102 16.9036 215.26 16.1562 215.578 15.5C215.901 14.8385 216.349 14.3229 216.922 13.9531C217.5 13.5781 218.125 13.3906 218.797 13.3906C219.896 13.3906 220.75 13.7526 221.359 14.4766C221.969 15.2005 222.273 16.237 222.273 17.5859V18.1875H216.547C216.568 19.0208 216.81 19.6953 217.273 20.2109C217.742 20.7214 218.336 20.9766 219.055 20.9766C219.565 20.9766 219.997 20.8724 220.352 20.6641C220.706 20.4557 221.016 20.1797 221.281 19.8359L222.164 20.5234C221.456 21.612 220.393 22.1562 218.977 22.1562ZM218.797 14.5781C218.214 14.5781 217.724 14.7917 217.328 15.2188C216.932 15.6406 216.688 16.2344 216.594 17H220.828V16.8906C220.786 16.1562 220.589 15.5885 220.234 15.1875C219.88 14.7812 219.401 14.5781 218.797 14.5781ZM223.984 21.2422C223.984 20.9922 224.057 20.7839 224.203 20.6172C224.354 20.4505 224.578 20.3672 224.875 20.3672C225.172 20.3672 225.396 20.4505 225.547 20.6172C225.703 20.7839 225.781 20.9922 225.781 21.2422C225.781 21.4818 225.703 21.6823 225.547 21.8438C225.396 22.0052 225.172 22.0859 224.875 22.0859C224.578 22.0859 224.354 22.0052 224.203 21.8438C224.057 21.6823 223.984 21.4818 223.984 21.2422ZM231.75 16.9297C230.464 16.5599 229.526 16.1068 228.938 15.5703C228.354 15.0286 228.062 14.362 228.062 13.5703C228.062 12.6745 228.419 11.9349 229.133 11.3516C229.852 10.763 230.784 10.4688 231.93 10.4688C232.711 10.4688 233.406 10.6198 234.016 10.9219C234.63 11.224 235.104 11.6406 235.438 12.1719C235.776 12.7031 235.945 13.2839 235.945 13.9141H234.438C234.438 13.2266 234.219 12.6875 233.781 12.2969C233.344 11.901 232.727 11.7031 231.93 11.7031C231.19 11.7031 230.612 11.8672 230.195 12.1953C229.784 12.5182 229.578 12.9688 229.578 13.5469C229.578 14.0104 229.773 14.4036 230.164 14.7266C230.56 15.0443 231.229 15.3359 232.172 15.6016C233.12 15.8672 233.859 16.1615 234.391 16.4844C234.927 16.8021 235.323 17.1745 235.578 17.6016C235.839 18.0286 235.969 18.5312 235.969 19.1094C235.969 20.0312 235.609 20.7708 234.891 21.3281C234.172 21.8802 233.211 22.1562 232.008 22.1562C231.227 22.1562 230.497 22.0078 229.82 21.7109C229.143 21.4089 228.62 20.9974 228.25 20.4766C227.885 19.9557 227.703 19.3646 227.703 18.7031H229.211C229.211 19.3906 229.464 19.9349 229.969 20.3359C230.479 20.7318 231.159 20.9297 232.008 20.9297C232.799 20.9297 233.406 20.7682 233.828 20.4453C234.25 20.1224 234.461 19.6823 234.461 19.125C234.461 18.5677 234.266 18.138 233.875 17.8359C233.484 17.5286 232.776 17.2266 231.75 16.9297ZM239.031 13.5469L239.07 14.4844C239.69 13.7552 240.526 13.3906 241.578 13.3906C242.76 13.3906 243.565 13.8438 243.992 14.75C244.273 14.3438 244.638 14.0156 245.086 13.7656C245.539 13.5156 246.073 13.3906 246.688 13.3906C248.542 13.3906 249.484 14.3724 249.516 16.3359V22H248.07V16.4219C248.07 15.8177 247.932 15.3672 247.656 15.0703C247.38 14.7682 246.917 14.6172 246.266 14.6172C245.729 14.6172 245.284 14.7786 244.93 15.1016C244.576 15.4193 244.37 15.849 244.312 16.3906V22H242.859V16.4609C242.859 15.2318 242.258 14.6172 241.055 14.6172C240.107 14.6172 239.458 15.0208 239.109 15.8281V22H237.664V13.5469H239.031ZM253.273 22H251.828V13.5469H253.273V22ZM251.711 11.3047C251.711 11.0703 251.781 10.8724 251.922 10.7109C252.068 10.5495 252.281 10.4688 252.562 10.4688C252.844 10.4688 253.057 10.5495 253.203 10.7109C253.349 10.8724 253.422 11.0703 253.422 11.3047C253.422 11.5391 253.349 11.7344 253.203 11.8906C253.057 12.0469 252.844 12.125 252.562 12.125C252.281 12.125 252.068 12.0469 251.922 11.8906C251.781 11.7344 251.711 11.5391 251.711 11.3047ZM257.555 11.5V13.5469H259.133V14.6641H257.555V19.9062C257.555 20.2448 257.625 20.5 257.766 20.6719C257.906 20.8385 258.146 20.9219 258.484 20.9219C258.651 20.9219 258.88 20.8906 259.172 20.8281V22C258.792 22.1042 258.422 22.1562 258.062 22.1562C257.417 22.1562 256.93 21.9609 256.602 21.5703C256.273 21.1797 256.109 20.625 256.109 19.9062V14.6641H254.57V13.5469H256.109V11.5H257.555ZM262.273 14.5703C262.914 13.7839 263.747 13.3906 264.773 13.3906C266.56 13.3906 267.461 14.3984 267.477 16.4141V22H266.031V16.4062C266.026 15.7969 265.885 15.3464 265.609 15.0547C265.339 14.763 264.914 14.6172 264.336 14.6172C263.867 14.6172 263.456 14.7422 263.102 14.9922C262.747 15.2422 262.471 15.5703 262.273 15.9766V22H260.828V10H262.273V14.5703ZM282.125 18.0781C282.062 19.3385 281.75 20.3333 281.188 21.0625C280.625 21.7917 279.872 22.1562 278.93 22.1562C277.956 22.1562 277.331 21.7188 277.055 20.8438C276.773 21.2865 276.451 21.6172 276.086 21.8359C275.727 22.0495 275.354 22.1562 274.969 22.1562C274.229 22.1562 273.669 21.8542 273.289 21.25C272.909 20.6458 272.768 19.8099 272.867 18.7422C272.945 17.8828 273.141 17.1172 273.453 16.4453C273.771 15.7682 274.177 15.237 274.672 14.8516C275.172 14.4661 275.695 14.2734 276.242 14.2734C276.664 14.2734 277.042 14.3307 277.375 14.4453C277.708 14.5547 278.083 14.7734 278.5 15.1016L278.094 19.4297C277.995 20.6328 278.328 21.2344 279.094 21.2344C279.682 21.2344 280.159 20.9427 280.523 20.3594C280.888 19.776 281.086 19.0156 281.117 18.0781C281.216 16.0521 280.839 14.5078 279.984 13.4453C279.135 12.3828 277.841 11.8516 276.102 11.8516C275.055 11.8516 274.125 12.112 273.312 12.6328C272.5 13.1484 271.859 13.8958 271.391 14.875C270.922 15.8542 270.659 16.9844 270.602 18.2656C270.539 19.5573 270.695 20.6797 271.07 21.6328C271.445 22.5807 272.016 23.3047 272.781 23.8047C273.552 24.3099 274.482 24.5625 275.57 24.5625C276.039 24.5625 276.508 24.5052 276.977 24.3906C277.451 24.276 277.844 24.1276 278.156 23.9453L278.445 24.8438C278.122 25.0469 277.693 25.2135 277.156 25.3438C276.625 25.474 276.086 25.5391 275.539 25.5391C274.237 25.5391 273.117 25.2448 272.18 24.6562C271.242 24.0729 270.539 23.2292 270.07 22.125C269.607 21.026 269.406 19.7396 269.469 18.2656C269.531 16.8333 269.852 15.5469 270.43 14.4062C271.008 13.2604 271.792 12.3776 272.781 11.7578C273.771 11.1328 274.888 10.8203 276.133 10.8203C277.43 10.8203 278.542 11.112 279.469 11.6953C280.396 12.2786 281.086 13.1198 281.539 14.2188C281.992 15.3177 282.188 16.6042 282.125 18.0781ZM274.109 18.7422C274.036 19.4818 274.104 20.0495 274.312 20.4453C274.526 20.8411 274.862 21.0391 275.32 21.0391C275.633 21.0391 275.932 20.9062 276.219 20.6406C276.51 20.375 276.75 19.9948 276.938 19.5L276.945 19.4297L277.305 15.5C277.013 15.349 276.701 15.2734 276.367 15.2734C275.758 15.2734 275.253 15.5833 274.852 16.2031C274.456 16.8229 274.208 17.6693 274.109 18.7422ZM283.633 17.6953C283.633 16.8672 283.794 16.1224 284.117 15.4609C284.445 14.7995 284.898 14.2891 285.477 13.9297C286.06 13.5703 286.724 13.3906 287.469 13.3906C288.62 13.3906 289.549 13.7891 290.258 14.5859C290.971 15.3828 291.328 16.4427 291.328 17.7656V17.8672C291.328 18.6901 291.169 19.4297 290.852 20.0859C290.539 20.737 290.089 21.2448 289.5 21.6094C288.917 21.974 288.245 22.1562 287.484 22.1562C286.339 22.1562 285.409 21.7578 284.695 20.9609C283.987 20.1641 283.633 19.1094 283.633 17.7969V17.6953ZM285.086 17.8672C285.086 18.8047 285.302 19.5573 285.734 20.125C286.172 20.6927 286.755 20.9766 287.484 20.9766C288.219 20.9766 288.802 20.6901 289.234 20.1172C289.667 19.5391 289.883 18.7318 289.883 17.6953C289.883 16.7682 289.661 16.0182 289.219 15.4453C288.781 14.8672 288.198 14.5781 287.469 14.5781C286.755 14.5781 286.18 14.862 285.742 15.4297C285.305 15.9974 285.086 16.8099 285.086 17.8672ZM298.359 21.1641C297.797 21.8255 296.971 22.1562 295.883 22.1562C294.982 22.1562 294.294 21.8958 293.82 21.375C293.352 20.849 293.115 20.0729 293.109 19.0469V13.5469H294.555V19.0078C294.555 20.2891 295.076 20.9297 296.117 20.9297C297.221 20.9297 297.956 20.5182 298.32 19.6953V13.5469H299.766V22H298.391L298.359 21.1641ZM303.93 11.5V13.5469H305.508V14.6641H303.93V19.9062C303.93 20.2448 304 20.5 304.141 20.6719C304.281 20.8385 304.521 20.9219 304.859 20.9219C305.026 20.9219 305.255 20.8906 305.547 20.8281V22C305.167 22.1042 304.797 22.1562 304.438 22.1562C303.792 22.1562 303.305 21.9609 302.977 21.5703C302.648 21.1797 302.484 20.625 302.484 19.9062V14.6641H300.945V13.5469H302.484V11.5H303.93ZM308.773 22H307.328V10H308.773V22ZM310.711 17.6953C310.711 16.8672 310.872 16.1224 311.195 15.4609C311.523 14.7995 311.977 14.2891 312.555 13.9297C313.138 13.5703 313.802 13.3906 314.547 13.3906C315.698 13.3906 316.628 13.7891 317.336 14.5859C318.049 15.3828 318.406 16.4427 318.406 17.7656V17.8672C318.406 18.6901 318.247 19.4297 317.93 20.0859C317.617 20.737 317.167 21.2448 316.578 21.6094C315.995 21.974 315.323 22.1562 314.562 22.1562C313.417 22.1562 312.487 21.7578 311.773 20.9609C311.065 20.1641 310.711 19.1094 310.711 17.7969V17.6953ZM312.164 17.8672C312.164 18.8047 312.38 19.5573 312.812 20.125C313.25 20.6927 313.833 20.9766 314.562 20.9766C315.297 20.9766 315.88 20.6901 316.312 20.1172C316.745 19.5391 316.961 18.7318 316.961 17.6953C316.961 16.7682 316.74 16.0182 316.297 15.4453C315.859 14.8672 315.276 14.5781 314.547 14.5781C313.833 14.5781 313.258 14.862 312.82 15.4297C312.383 15.9974 312.164 16.8099 312.164 17.8672ZM319.836 17.6953C319.836 16.8672 319.997 16.1224 320.32 15.4609C320.648 14.7995 321.102 14.2891 321.68 13.9297C322.263 13.5703 322.927 13.3906 323.672 13.3906C324.823 13.3906 325.753 13.7891 326.461 14.5859C327.174 15.3828 327.531 16.4427 327.531 17.7656V17.8672C327.531 18.6901 327.372 19.4297 327.055 20.0859C326.742 20.737 326.292 21.2448 325.703 21.6094C325.12 21.974 324.448 22.1562 323.688 22.1562C322.542 22.1562 321.612 21.7578 320.898 20.9609C320.19 20.1641 319.836 19.1094 319.836 17.7969V17.6953ZM321.289 17.8672C321.289 18.8047 321.505 19.5573 321.938 20.125C322.375 20.6927 322.958 20.9766 323.688 20.9766C324.422 20.9766 325.005 20.6901 325.438 20.1172C325.87 19.5391 326.086 18.7318 326.086 17.6953C326.086 16.7682 325.865 16.0182 325.422 15.4453C324.984 14.8672 324.401 14.5781 323.672 14.5781C322.958 14.5781 322.383 14.862 321.945 15.4297C321.508 15.9974 321.289 16.8099 321.289 17.8672ZM331.703 18.0859L330.797 19.0312V22H329.352V10H330.797V17.2578L331.57 16.3281L334.203 13.5469H335.961L332.672 17.0781L336.344 22H334.648L331.703 18.0859ZM337.484 21.2422C337.484 20.9922 337.557 20.7839 337.703 20.6172C337.854 20.4505 338.078 20.3672 338.375 20.3672C338.672 20.3672 338.896 20.4505 339.047 20.6172C339.203 20.7839 339.281 20.9922 339.281 21.2422C339.281 21.4818 339.203 21.6823 339.047 21.8438C338.896 22.0052 338.672 22.0859 338.375 22.0859C338.078 22.0859 337.854 22.0052 337.703 21.8438C337.557 21.6823 337.484 21.4818 337.484 21.2422ZM345.062 20.9766C345.578 20.9766 346.029 20.8203 346.414 20.5078C346.799 20.1953 347.013 19.8047 347.055 19.3359H348.422C348.396 19.8203 348.229 20.2812 347.922 20.7188C347.615 21.1562 347.203 21.5052 346.688 21.7656C346.177 22.026 345.635 22.1562 345.062 22.1562C343.911 22.1562 342.995 21.7734 342.312 21.0078C341.635 20.237 341.297 19.1849 341.297 17.8516V17.6094C341.297 16.7865 341.448 16.0547 341.75 15.4141C342.052 14.7734 342.484 14.276 343.047 13.9219C343.615 13.5677 344.284 13.3906 345.055 13.3906C346.003 13.3906 346.789 13.6745 347.414 14.2422C348.044 14.8099 348.38 15.5469 348.422 16.4531H347.055C347.013 15.9062 346.805 15.4583 346.43 15.1094C346.06 14.7552 345.602 14.5781 345.055 14.5781C344.32 14.5781 343.75 14.8438 343.344 15.375C342.943 15.901 342.742 16.6641 342.742 17.6641V17.9375C342.742 18.9115 342.943 19.6615 343.344 20.1875C343.745 20.7135 344.318 20.9766 345.062 20.9766ZM349.664 17.6953C349.664 16.8672 349.826 16.1224 350.148 15.4609C350.477 14.7995 350.93 14.2891 351.508 13.9297C352.091 13.5703 352.755 13.3906 353.5 13.3906C354.651 13.3906 355.581 13.7891 356.289 14.5859C357.003 15.3828 357.359 16.4427 357.359 17.7656V17.8672C357.359 18.6901 357.201 19.4297 356.883 20.0859C356.57 20.737 356.12 21.2448 355.531 21.6094C354.948 21.974 354.276 22.1562 353.516 22.1562C352.37 22.1562 351.44 21.7578 350.727 20.9609C350.018 20.1641 349.664 19.1094 349.664 17.7969V17.6953ZM351.117 17.8672C351.117 18.8047 351.333 19.5573 351.766 20.125C352.203 20.6927 352.786 20.9766 353.516 20.9766C354.25 20.9766 354.833 20.6901 355.266 20.1172C355.698 19.5391 355.914 18.7318 355.914 17.6953C355.914 16.7682 355.693 16.0182 355.25 15.4453C354.812 14.8672 354.229 14.5781 353.5 14.5781C352.786 14.5781 352.211 14.862 351.773 15.4297C351.336 15.9974 351.117 16.8099 351.117 17.8672ZM360.531 13.5469L360.57 14.4844C361.19 13.7552 362.026 13.3906 363.078 13.3906C364.26 13.3906 365.065 13.8438 365.492 14.75C365.773 14.3438 366.138 14.0156 366.586 13.7656C367.039 13.5156 367.573 13.3906 368.188 13.3906C370.042 13.3906 370.984 14.3724 371.016 16.3359V22H369.57V16.4219C369.57 15.8177 369.432 15.3672 369.156 15.0703C368.88 14.7682 368.417 14.6172 367.766 14.6172C367.229 14.6172 366.784 14.7786 366.43 15.1016C366.076 15.4193 365.87 15.849 365.812 16.3906V22H364.359V16.4609C364.359 15.2318 363.758 14.6172 362.555 14.6172C361.607 14.6172 360.958 15.0208 360.609 15.8281V22H359.164V13.5469H360.531Z"
    fill="black" />
  <rect x="0.5" y="32.5" width="402" height="31" fill="white" stroke="#777777" />
  <path
    d="M12.4453 52.7734H18.9531V54H10.6719V52.875L16.9062 43.8594H10.7734V42.625H18.7031V43.7266L12.4453 52.7734ZM25.8906 54C25.8073 53.8333 25.7396 53.5365 25.6875 53.1094C25.0156 53.8073 24.2135 54.1562 23.2812 54.1562C22.4479 54.1562 21.763 53.9219 21.2266 53.4531C20.6953 52.9792 20.4297 52.3802 20.4297 51.6562C20.4297 50.776 20.763 50.0938 21.4297 49.6094C22.1016 49.1198 23.0443 48.875 24.2578 48.875H25.6641V48.2109C25.6641 47.7057 25.513 47.3047 25.2109 47.0078C24.9089 46.7057 24.4635 46.5547 23.875 46.5547C23.3594 46.5547 22.9271 46.6849 22.5781 46.9453C22.2292 47.2057 22.0547 47.5208 22.0547 47.8906H20.6016C20.6016 47.4688 20.75 47.0625 21.0469 46.6719C21.349 46.276 21.7552 45.9635 22.2656 45.7344C22.7812 45.5052 23.3464 45.3906 23.9609 45.3906C24.9349 45.3906 25.6979 45.6354 26.25 46.125C26.8021 46.6094 27.0885 47.2786 27.1094 48.1328V52.0234C27.1094 52.7995 27.2083 53.4167 27.4062 53.875V54H25.8906ZM23.4922 52.8984C23.9453 52.8984 24.375 52.7812 24.7812 52.5469C25.1875 52.3125 25.4818 52.0078 25.6641 51.6328V49.8984H24.5312C22.7604 49.8984 21.875 50.4167 21.875 51.4531C21.875 51.9062 22.026 52.2604 22.3281 52.5156C22.6302 52.7708 23.0182 52.8984 23.4922 52.8984ZM32.7656 52.9766C33.2812 52.9766 33.7318 52.8203 34.1172 52.5078C34.5026 52.1953 34.7161 51.8047 34.7578 51.3359H36.125C36.099 51.8203 35.9323 52.2812 35.625 52.7188C35.3177 53.1562 34.9062 53.5052 34.3906 53.7656C33.8802 54.026 33.3385 54.1562 32.7656 54.1562C31.6146 54.1562 30.6979 53.7734 30.0156 53.0078C29.3385 52.237 29 51.1849 29 49.8516V49.6094C29 48.7865 29.151 48.0547 29.4531 47.4141C29.7552 46.7734 30.1875 46.276 30.75 45.9219C31.3177 45.5677 31.987 45.3906 32.7578 45.3906C33.7057 45.3906 34.4922 45.6745 35.1172 46.2422C35.7474 46.8099 36.0833 47.5469 36.125 48.4531H34.7578C34.7161 47.9062 34.5078 47.4583 34.1328 47.1094C33.763 46.7552 33.3047 46.5781 32.7578 46.5781C32.0234 46.5781 31.4531 46.8438 31.0469 47.375C30.6458 47.901 30.4453 48.6641 30.4453 49.6641V49.9375C30.4453 50.9115 30.6458 51.6615 31.0469 52.1875C31.4479 52.7135 32.0208 52.9766 32.7656 52.9766ZM39.1953 46.5703C39.8359 45.7839 40.6693 45.3906 41.6953 45.3906C43.4818 45.3906 44.3828 46.3984 44.3984 48.4141V54H42.9531V48.4062C42.9479 47.7969 42.8073 47.3464 42.5312 47.0547C42.2604 46.763 41.8359 46.6172 41.2578 46.6172C40.7891 46.6172 40.3776 46.7422 40.0234 46.9922C39.6693 47.2422 39.3932 47.5703 39.1953 47.9766V54H37.75V42H39.1953V46.5703ZM51.7812 54C51.6979 53.8333 51.6302 53.5365 51.5781 53.1094C50.9062 53.8073 50.1042 54.1562 49.1719 54.1562C48.3385 54.1562 47.6536 53.9219 47.1172 53.4531C46.5859 52.9792 46.3203 52.3802 46.3203 51.6562C46.3203 50.776 46.6536 50.0938 47.3203 49.6094C47.9922 49.1198 48.9349 48.875 50.1484 48.875H51.5547V48.2109C51.5547 47.7057 51.4036 47.3047 51.1016 47.0078C50.7995 46.7057 50.3542 46.5547 49.7656 46.5547C49.25 46.5547 48.8177 46.6849 48.4688 46.9453C48.1198 47.2057 47.9453 47.5208 47.9453 47.8906H46.4922C46.4922 47.4688 46.6406 47.0625 46.9375 46.6719C47.2396 46.276 47.6458 45.9635 48.1562 45.7344C48.6719 45.5052 49.237 45.3906 49.8516 45.3906C50.8255 45.3906 51.5885 45.6354 52.1406 46.125C52.6927 46.6094 52.9792 47.2786 53 48.1328V52.0234C53 52.7995 53.099 53.4167 53.2969 53.875V54H51.7812ZM49.3828 52.8984C49.8359 52.8984 50.2656 52.7812 50.6719 52.5469C51.0781 52.3125 51.3724 52.0078 51.5547 51.6328V49.8984H50.4219C48.651 49.8984 47.7656 50.4167 47.7656 51.4531C47.7656 51.9062 47.9167 52.2604 48.2188 52.5156C48.5208 52.7708 48.9089 52.8984 49.3828 52.8984ZM59.3516 46.8438C59.1328 46.8073 58.8958 46.7891 58.6406 46.7891C57.6927 46.7891 57.0495 47.1927 56.7109 48V54H55.2656V45.5469H56.6719L56.6953 46.5234C57.1693 45.7682 57.8411 45.3906 58.7109 45.3906C58.9922 45.3906 59.2057 45.4271 59.3516 45.5V46.8438ZM62.2578 54H60.8125V45.5469H62.2578V54ZM60.6953 43.3047C60.6953 43.0703 60.7656 42.8724 60.9062 42.7109C61.0521 42.5495 61.2656 42.4688 61.5469 42.4688C61.8281 42.4688 62.0417 42.5495 62.1875 42.7109C62.3333 42.8724 62.4062 43.0703 62.4062 43.3047C62.4062 43.5391 62.3333 43.7344 62.1875 43.8906C62.0417 44.0469 61.8281 44.125 61.5469 44.125C61.2656 44.125 61.0521 44.0469 60.9062 43.8906C60.7656 43.7344 60.6953 43.5391 60.6953 43.3047ZM69.7969 54C69.7135 53.8333 69.6458 53.5365 69.5938 53.1094C68.9219 53.8073 68.1198 54.1562 67.1875 54.1562C66.3542 54.1562 65.6693 53.9219 65.1328 53.4531C64.6016 52.9792 64.3359 52.3802 64.3359 51.6562C64.3359 50.776 64.6693 50.0938 65.3359 49.6094C66.0078 49.1198 66.9505 48.875 68.1641 48.875H69.5703V48.2109C69.5703 47.7057 69.4193 47.3047 69.1172 47.0078C68.8151 46.7057 68.3698 46.5547 67.7812 46.5547C67.2656 46.5547 66.8333 46.6849 66.4844 46.9453C66.1354 47.2057 65.9609 47.5208 65.9609 47.8906H64.5078C64.5078 47.4688 64.6562 47.0625 64.9531 46.6719C65.2552 46.276 65.6615 45.9635 66.1719 45.7344C66.6875 45.5052 67.2526 45.3906 67.8672 45.3906C68.8411 45.3906 69.6042 45.6354 70.1562 46.125C70.7083 46.6094 70.9948 47.2786 71.0156 48.1328V52.0234C71.0156 52.7995 71.1146 53.4167 71.3125 53.875V54H69.7969ZM67.3984 52.8984C67.8516 52.8984 68.2812 52.7812 68.6875 52.5469C69.0938 52.3125 69.388 52.0078 69.5703 51.6328V49.8984H68.4375C66.6667 49.8984 65.7812 50.4167 65.7812 51.4531C65.7812 51.9062 65.9323 52.2604 66.2344 52.5156C66.5365 52.7708 66.9245 52.8984 67.3984 52.8984ZM74.7266 46.5703C75.3672 45.7839 76.2005 45.3906 77.2266 45.3906C79.013 45.3906 79.9141 46.3984 79.9297 48.4141V54H78.4844V48.4062C78.4792 47.7969 78.3385 47.3464 78.0625 47.0547C77.7917 46.763 77.3672 46.6172 76.7891 46.6172C76.3203 46.6172 75.9089 46.7422 75.5547 46.9922C75.2005 47.2422 74.9245 47.5703 74.7266 47.9766V54H73.2812V42H74.7266V46.5703ZM88.1875 55.1797H81.0312V54H88.1875V55.1797ZM94.3047 42.625H95.8125V50.6797C95.8125 51.7682 95.4844 52.6198 94.8281 53.2344C94.1771 53.849 93.3073 54.1562 92.2188 54.1562C91.0885 54.1562 90.2083 53.8672 89.5781 53.2891C88.9479 52.7109 88.6328 51.901 88.6328 50.8594H90.1328C90.1328 51.5104 90.3099 52.0182 90.6641 52.3828C91.0234 52.7474 91.5417 52.9297 92.2188 52.9297C92.8385 52.9297 93.3385 52.7344 93.7188 52.3438C94.1042 51.9531 94.2995 51.4062 94.3047 50.7031V42.625ZM103.359 54C103.276 53.8333 103.208 53.5365 103.156 53.1094C102.484 53.8073 101.682 54.1562 100.75 54.1562C99.9167 54.1562 99.2318 53.9219 98.6953 53.4531C98.1641 52.9792 97.8984 52.3802 97.8984 51.6562C97.8984 50.776 98.2318 50.0938 98.8984 49.6094C99.5703 49.1198 100.513 48.875 101.727 48.875H103.133V48.2109C103.133 47.7057 102.982 47.3047 102.68 47.0078C102.378 46.7057 101.932 46.5547 101.344 46.5547C100.828 46.5547 100.396 46.6849 100.047 46.9453C99.6979 47.2057 99.5234 47.5208 99.5234 47.8906H98.0703C98.0703 47.4688 98.2188 47.0625 98.5156 46.6719C98.8177 46.276 99.224 45.9635 99.7344 45.7344C100.25 45.5052 100.815 45.3906 101.43 45.3906C102.404 45.3906 103.167 45.6354 103.719 46.125C104.271 46.6094 104.557 47.2786 104.578 48.1328V52.0234C104.578 52.7995 104.677 53.4167 104.875 53.875V54H103.359ZM100.961 52.8984C101.414 52.8984 101.844 52.7812 102.25 52.5469C102.656 52.3125 102.951 52.0078 103.133 51.6328V49.8984H102C100.229 49.8984 99.3438 50.4167 99.3438 51.4531C99.3438 51.9062 99.4948 52.2604 99.7969 52.5156C100.099 52.7708 100.487 52.8984 100.961 52.8984ZM110.234 52.9766C110.75 52.9766 111.201 52.8203 111.586 52.5078C111.971 52.1953 112.185 51.8047 112.227 51.3359H113.594C113.568 51.8203 113.401 52.2812 113.094 52.7188C112.786 53.1562 112.375 53.5052 111.859 53.7656C111.349 54.026 110.807 54.1562 110.234 54.1562C109.083 54.1562 108.167 53.7734 107.484 53.0078C106.807 52.237 106.469 51.1849 106.469 49.8516V49.6094C106.469 48.7865 106.62 48.0547 106.922 47.4141C107.224 46.7734 107.656 46.276 108.219 45.9219C108.786 45.5677 109.456 45.3906 110.227 45.3906C111.174 45.3906 111.961 45.6745 112.586 46.2422C113.216 46.8099 113.552 47.5469 113.594 48.4531H112.227C112.185 47.9062 111.977 47.4583 111.602 47.1094C111.232 46.7552 110.773 46.5781 110.227 46.5781C109.492 46.5781 108.922 46.8438 108.516 47.375C108.115 47.901 107.914 48.6641 107.914 49.6641V49.9375C107.914 50.9115 108.115 51.6615 108.516 52.1875C108.917 52.7135 109.49 52.9766 110.234 52.9766ZM114.836 49.6953C114.836 48.8672 114.997 48.1224 115.32 47.4609C115.648 46.7995 116.102 46.2891 116.68 45.9297C117.263 45.5703 117.927 45.3906 118.672 45.3906C119.823 45.3906 120.753 45.7891 121.461 46.5859C122.174 47.3828 122.531 48.4427 122.531 49.7656V49.8672C122.531 50.6901 122.372 51.4297 122.055 52.0859C121.742 52.737 121.292 53.2448 120.703 53.6094C120.12 53.974 119.448 54.1562 118.688 54.1562C117.542 54.1562 116.612 53.7578 115.898 52.9609C115.19 52.1641 114.836 51.1094 114.836 49.7969V49.6953ZM116.289 49.8672C116.289 50.8047 116.505 51.5573 116.938 52.125C117.375 52.6927 117.958 52.9766 118.688 52.9766C119.422 52.9766 120.005 52.6901 120.438 52.1172C120.87 51.5391 121.086 50.7318 121.086 49.6953C121.086 48.7682 120.865 48.0182 120.422 47.4453C119.984 46.8672 119.401 46.5781 118.672 46.5781C117.958 46.5781 117.383 46.862 116.945 47.4297C116.508 47.9974 116.289 48.8099 116.289 49.8672ZM131.5 49.8672C131.5 51.1589 131.203 52.1979 130.609 52.9844C130.016 53.7656 129.219 54.1562 128.219 54.1562C127.151 54.1562 126.326 53.7786 125.742 53.0234L125.672 54H124.344V42H125.789V46.4766C126.372 45.7526 127.177 45.3906 128.203 45.3906C129.229 45.3906 130.034 45.7786 130.617 46.5547C131.206 47.3307 131.5 48.3932 131.5 49.7422V49.8672ZM130.055 49.7031C130.055 48.7188 129.865 47.9583 129.484 47.4219C129.104 46.8854 128.557 46.6172 127.844 46.6172C126.891 46.6172 126.206 47.0599 125.789 47.9453V51.6016C126.232 52.487 126.922 52.9297 127.859 52.9297C128.552 52.9297 129.091 52.6615 129.477 52.125C129.862 51.5885 130.055 50.7812 130.055 49.7031ZM138.25 51.7578C138.25 51.3672 138.102 51.0651 137.805 50.8516C137.513 50.6328 137 50.4453 136.266 50.2891C135.536 50.1328 134.956 49.9453 134.523 49.7266C134.096 49.5078 133.779 49.2474 133.57 48.9453C133.367 48.6432 133.266 48.2839 133.266 47.8672C133.266 47.1745 133.557 46.5885 134.141 46.1094C134.729 45.6302 135.479 45.3906 136.391 45.3906C137.349 45.3906 138.125 45.638 138.719 46.1328C139.318 46.6276 139.617 47.2604 139.617 48.0312H138.164C138.164 47.6354 137.995 47.2943 137.656 47.0078C137.323 46.7214 136.901 46.5781 136.391 46.5781C135.865 46.5781 135.453 46.6927 135.156 46.9219C134.859 47.151 134.711 47.4505 134.711 47.8203C134.711 48.1693 134.849 48.4323 135.125 48.6094C135.401 48.7865 135.898 48.9557 136.617 49.1172C137.341 49.2786 137.927 49.4714 138.375 49.6953C138.823 49.9193 139.154 50.1901 139.367 50.5078C139.586 50.8203 139.695 51.2031 139.695 51.6562C139.695 52.4115 139.393 53.0182 138.789 53.4766C138.185 53.9297 137.401 54.1562 136.438 54.1562C135.76 54.1562 135.161 54.0365 134.641 53.7969C134.12 53.5573 133.711 53.224 133.414 52.7969C133.122 52.3646 132.977 51.8984 132.977 51.3984H134.422C134.448 51.8828 134.641 52.2682 135 52.5547C135.365 52.8359 135.844 52.9766 136.438 52.9766C136.984 52.9766 137.422 52.8672 137.75 52.6484C138.083 52.4245 138.25 52.1276 138.25 51.7578ZM141.195 49.6953C141.195 48.8672 141.357 48.1224 141.68 47.4609C142.008 46.7995 142.461 46.2891 143.039 45.9297C143.622 45.5703 144.286 45.3906 145.031 45.3906C146.182 45.3906 147.112 45.7891 147.82 46.5859C148.534 47.3828 148.891 48.4427 148.891 49.7656V49.8672C148.891 50.6901 148.732 51.4297 148.414 52.0859C148.102 52.737 147.651 53.2448 147.062 53.6094C146.479 53.974 145.807 54.1562 145.047 54.1562C143.901 54.1562 142.971 53.7578 142.258 52.9609C141.549 52.1641 141.195 51.1094 141.195 49.7969V49.6953ZM142.648 49.8672C142.648 50.8047 142.865 51.5573 143.297 52.125C143.734 52.6927 144.318 52.9766 145.047 52.9766C145.781 52.9766 146.365 52.6901 146.797 52.1172C147.229 51.5391 147.445 50.7318 147.445 49.6953C147.445 48.7682 147.224 48.0182 146.781 47.4453C146.344 46.8672 145.76 46.5781 145.031 46.5781C144.318 46.5781 143.742 46.862 143.305 47.4297C142.867 47.9974 142.648 48.8099 142.648 49.8672ZM152.07 45.5469L152.117 46.6094C152.763 45.7969 153.607 45.3906 154.648 45.3906C156.435 45.3906 157.336 46.3984 157.352 48.4141V54H155.906V48.4062C155.901 47.7969 155.76 47.3464 155.484 47.0547C155.214 46.763 154.789 46.6172 154.211 46.6172C153.742 46.6172 153.331 46.7422 152.977 46.9922C152.622 47.2422 152.346 47.5703 152.148 47.9766V54H150.703V45.5469H152.07ZM172.016 50.0781C171.953 51.3385 171.641 52.3333 171.078 53.0625C170.516 53.7917 169.763 54.1562 168.82 54.1562C167.846 54.1562 167.221 53.7188 166.945 52.8438C166.664 53.2865 166.341 53.6172 165.977 53.8359C165.617 54.0495 165.245 54.1562 164.859 54.1562C164.12 54.1562 163.56 53.8542 163.18 53.25C162.799 52.6458 162.659 51.8099 162.758 50.7422C162.836 49.8828 163.031 49.1172 163.344 48.4453C163.661 47.7682 164.068 47.237 164.562 46.8516C165.062 46.4661 165.586 46.2734 166.133 46.2734C166.555 46.2734 166.932 46.3307 167.266 46.4453C167.599 46.5547 167.974 46.7734 168.391 47.1016L167.984 51.4297C167.885 52.6328 168.219 53.2344 168.984 53.2344C169.573 53.2344 170.049 52.9427 170.414 52.3594C170.779 51.776 170.977 51.0156 171.008 50.0781C171.107 48.0521 170.729 46.5078 169.875 45.4453C169.026 44.3828 167.732 43.8516 165.992 43.8516C164.945 43.8516 164.016 44.112 163.203 44.6328C162.391 45.1484 161.75 45.8958 161.281 46.875C160.812 47.8542 160.549 48.9844 160.492 50.2656C160.43 51.5573 160.586 52.6797 160.961 53.6328C161.336 54.5807 161.906 55.3047 162.672 55.8047C163.443 56.3099 164.372 56.5625 165.461 56.5625C165.93 56.5625 166.398 56.5052 166.867 56.3906C167.341 56.276 167.734 56.1276 168.047 55.9453L168.336 56.8438C168.013 57.0469 167.583 57.2135 167.047 57.3438C166.516 57.474 165.977 57.5391 165.43 57.5391C164.128 57.5391 163.008 57.2448 162.07 56.6562C161.133 56.0729 160.43 55.2292 159.961 54.125C159.497 53.026 159.297 51.7396 159.359 50.2656C159.422 48.8333 159.742 47.5469 160.32 46.4062C160.898 45.2604 161.682 44.3776 162.672 43.7578C163.661 43.1328 164.779 42.8203 166.023 42.8203C167.32 42.8203 168.432 43.112 169.359 43.6953C170.286 44.2786 170.977 45.1198 171.43 46.2188C171.883 47.3177 172.078 48.6042 172.016 50.0781ZM164 50.7422C163.927 51.4818 163.995 52.0495 164.203 52.4453C164.417 52.8411 164.753 53.0391 165.211 53.0391C165.523 53.0391 165.823 52.9062 166.109 52.6406C166.401 52.375 166.641 51.9948 166.828 51.5L166.836 51.4297L167.195 47.5C166.904 47.349 166.591 47.2734 166.258 47.2734C165.648 47.2734 165.143 47.5833 164.742 48.2031C164.346 48.8229 164.099 49.6693 164 50.7422ZM173.523 49.6953C173.523 48.8672 173.685 48.1224 174.008 47.4609C174.336 46.7995 174.789 46.2891 175.367 45.9297C175.951 45.5703 176.615 45.3906 177.359 45.3906C178.51 45.3906 179.44 45.7891 180.148 46.5859C180.862 47.3828 181.219 48.4427 181.219 49.7656V49.8672C181.219 50.6901 181.06 51.4297 180.742 52.0859C180.43 52.737 179.979 53.2448 179.391 53.6094C178.807 53.974 178.135 54.1562 177.375 54.1562C176.229 54.1562 175.299 53.7578 174.586 52.9609C173.878 52.1641 173.523 51.1094 173.523 49.7969V49.6953ZM174.977 49.8672C174.977 50.8047 175.193 51.5573 175.625 52.125C176.062 52.6927 176.646 52.9766 177.375 52.9766C178.109 52.9766 178.693 52.6901 179.125 52.1172C179.557 51.5391 179.773 50.7318 179.773 49.6953C179.773 48.7682 179.552 48.0182 179.109 47.4453C178.672 46.8672 178.089 46.5781 177.359 46.5781C176.646 46.5781 176.07 46.862 175.633 47.4297C175.195 47.9974 174.977 48.8099 174.977 49.8672ZM188.25 53.1641C187.688 53.8255 186.862 54.1562 185.773 54.1562C184.872 54.1562 184.185 53.8958 183.711 53.375C183.242 52.849 183.005 52.0729 183 51.0469V45.5469H184.445V51.0078C184.445 52.2891 184.966 52.9297 186.008 52.9297C187.112 52.9297 187.846 52.5182 188.211 51.6953V45.5469H189.656V54H188.281L188.25 53.1641ZM193.82 43.5V45.5469H195.398V46.6641H193.82V51.9062C193.82 52.2448 193.891 52.5 194.031 52.6719C194.172 52.8385 194.411 52.9219 194.75 52.9219C194.917 52.9219 195.146 52.8906 195.438 52.8281V54C195.057 54.1042 194.688 54.1562 194.328 54.1562C193.682 54.1562 193.195 53.9609 192.867 53.5703C192.539 53.1797 192.375 52.625 192.375 51.9062V46.6641H190.836V45.5469H192.375V43.5H193.82ZM198.664 54H197.219V42H198.664V54ZM200.602 49.6953C200.602 48.8672 200.763 48.1224 201.086 47.4609C201.414 46.7995 201.867 46.2891 202.445 45.9297C203.029 45.5703 203.693 45.3906 204.438 45.3906C205.589 45.3906 206.518 45.7891 207.227 46.5859C207.94 47.3828 208.297 48.4427 208.297 49.7656V49.8672C208.297 50.6901 208.138 51.4297 207.82 52.0859C207.508 52.737 207.057 53.2448 206.469 53.6094C205.885 53.974 205.214 54.1562 204.453 54.1562C203.307 54.1562 202.378 53.7578 201.664 52.9609C200.956 52.1641 200.602 51.1094 200.602 49.7969V49.6953ZM202.055 49.8672C202.055 50.8047 202.271 51.5573 202.703 52.125C203.141 52.6927 203.724 52.9766 204.453 52.9766C205.188 52.9766 205.771 52.6901 206.203 52.1172C206.635 51.5391 206.852 50.7318 206.852 49.6953C206.852 48.7682 206.63 48.0182 206.188 47.4453C205.75 46.8672 205.167 46.5781 204.438 46.5781C203.724 46.5781 203.148 46.862 202.711 47.4297C202.273 47.9974 202.055 48.8099 202.055 49.8672ZM209.727 49.6953C209.727 48.8672 209.888 48.1224 210.211 47.4609C210.539 46.7995 210.992 46.2891 211.57 45.9297C212.154 45.5703 212.818 45.3906 213.562 45.3906C214.714 45.3906 215.643 45.7891 216.352 46.5859C217.065 47.3828 217.422 48.4427 217.422 49.7656V49.8672C217.422 50.6901 217.263 51.4297 216.945 52.0859C216.633 52.737 216.182 53.2448 215.594 53.6094C215.01 53.974 214.339 54.1562 213.578 54.1562C212.432 54.1562 211.503 53.7578 210.789 52.9609C210.081 52.1641 209.727 51.1094 209.727 49.7969V49.6953ZM211.18 49.8672C211.18 50.8047 211.396 51.5573 211.828 52.125C212.266 52.6927 212.849 52.9766 213.578 52.9766C214.312 52.9766 214.896 52.6901 215.328 52.1172C215.76 51.5391 215.977 50.7318 215.977 49.6953C215.977 48.7682 215.755 48.0182 215.312 47.4453C214.875 46.8672 214.292 46.5781 213.562 46.5781C212.849 46.5781 212.273 46.862 211.836 47.4297C211.398 47.9974 211.18 48.8099 211.18 49.8672ZM221.594 50.0859L220.688 51.0312V54H219.242V42H220.688V49.2578L221.461 48.3281L224.094 45.5469H225.852L222.562 49.0781L226.234 54H224.539L221.594 50.0859ZM227.375 53.2422C227.375 52.9922 227.448 52.7839 227.594 52.6172C227.745 52.4505 227.969 52.3672 228.266 52.3672C228.562 52.3672 228.786 52.4505 228.938 52.6172C229.094 52.7839 229.172 52.9922 229.172 53.2422C229.172 53.4818 229.094 53.6823 228.938 53.8438C228.786 54.0052 228.562 54.0859 228.266 54.0859C227.969 54.0859 227.745 54.0052 227.594 53.8438C227.448 53.6823 227.375 53.4818 227.375 53.2422ZM234.953 52.9766C235.469 52.9766 235.919 52.8203 236.305 52.5078C236.69 52.1953 236.904 51.8047 236.945 51.3359H238.312C238.286 51.8203 238.12 52.2812 237.812 52.7188C237.505 53.1562 237.094 53.5052 236.578 53.7656C236.068 54.026 235.526 54.1562 234.953 54.1562C233.802 54.1562 232.885 53.7734 232.203 53.0078C231.526 52.237 231.188 51.1849 231.188 49.8516V49.6094C231.188 48.7865 231.339 48.0547 231.641 47.4141C231.943 46.7734 232.375 46.276 232.938 45.9219C233.505 45.5677 234.174 45.3906 234.945 45.3906C235.893 45.3906 236.68 45.6745 237.305 46.2422C237.935 46.8099 238.271 47.5469 238.312 48.4531H236.945C236.904 47.9062 236.695 47.4583 236.32 47.1094C235.951 46.7552 235.492 46.5781 234.945 46.5781C234.211 46.5781 233.641 46.8438 233.234 47.375C232.833 47.901 232.633 48.6641 232.633 49.6641V49.9375C232.633 50.9115 232.833 51.6615 233.234 52.1875C233.635 52.7135 234.208 52.9766 234.953 52.9766ZM239.555 49.6953C239.555 48.8672 239.716 48.1224 240.039 47.4609C240.367 46.7995 240.82 46.2891 241.398 45.9297C241.982 45.5703 242.646 45.3906 243.391 45.3906C244.542 45.3906 245.471 45.7891 246.18 46.5859C246.893 47.3828 247.25 48.4427 247.25 49.7656V49.8672C247.25 50.6901 247.091 51.4297 246.773 52.0859C246.461 52.737 246.01 53.2448 245.422 53.6094C244.839 53.974 244.167 54.1562 243.406 54.1562C242.26 54.1562 241.331 53.7578 240.617 52.9609C239.909 52.1641 239.555 51.1094 239.555 49.7969V49.6953ZM241.008 49.8672C241.008 50.8047 241.224 51.5573 241.656 52.125C242.094 52.6927 242.677 52.9766 243.406 52.9766C244.141 52.9766 244.724 52.6901 245.156 52.1172C245.589 51.5391 245.805 50.7318 245.805 49.6953C245.805 48.7682 245.583 48.0182 245.141 47.4453C244.703 46.8672 244.12 46.5781 243.391 46.5781C242.677 46.5781 242.102 46.862 241.664 47.4297C241.227 47.9974 241.008 48.8099 241.008 49.8672ZM250.422 45.5469L250.461 46.4844C251.081 45.7552 251.917 45.3906 252.969 45.3906C254.151 45.3906 254.956 45.8438 255.383 46.75C255.664 46.3438 256.029 46.0156 256.477 45.7656C256.93 45.5156 257.464 45.3906 258.078 45.3906C259.932 45.3906 260.875 46.3724 260.906 48.3359V54H259.461V48.4219C259.461 47.8177 259.323 47.3672 259.047 47.0703C258.771 46.7682 258.307 46.6172 257.656 46.6172C257.12 46.6172 256.674 46.7786 256.32 47.1016C255.966 47.4193 255.76 47.849 255.703 48.3906V54H254.25V48.4609C254.25 47.2318 253.648 46.6172 252.445 46.6172C251.497 46.6172 250.849 47.0208 250.5 47.8281V54H249.055V45.5469H250.422ZM263.047 56.2656L262.227 55.7031C262.716 55.0208 262.971 54.3177 262.992 53.5938V52.2891H264.406V53.4219C264.406 53.9479 264.276 54.474 264.016 55C263.76 55.526 263.438 55.9479 263.047 56.2656ZM270.234 53.2422C270.234 52.9922 270.307 52.7839 270.453 52.6172C270.604 52.4505 270.828 52.3672 271.125 52.3672C271.422 52.3672 271.646 52.4505 271.797 52.6172C271.953 52.7839 272.031 52.9922 272.031 53.2422C272.031 53.4818 271.953 53.6823 271.797 53.8438C271.646 54.0052 271.422 54.0859 271.125 54.0859C270.828 54.0859 270.604 54.0052 270.453 53.8438C270.307 53.6823 270.234 53.4818 270.234 53.2422ZM274.453 53.2422C274.453 52.9922 274.526 52.7839 274.672 52.6172C274.823 52.4505 275.047 52.3672 275.344 52.3672C275.641 52.3672 275.865 52.4505 276.016 52.6172C276.172 52.7839 276.25 52.9922 276.25 53.2422C276.25 53.4818 276.172 53.6823 276.016 53.8438C275.865 54.0052 275.641 54.0859 275.344 54.0859C275.047 54.0859 274.823 54.0052 274.672 53.8438C274.526 53.6823 274.453 53.4818 274.453 53.2422ZM278.672 53.2422C278.672 52.9922 278.745 52.7839 278.891 52.6172C279.042 52.4505 279.266 52.3672 279.562 52.3672C279.859 52.3672 280.083 52.4505 280.234 52.6172C280.391 52.7839 280.469 52.9922 280.469 53.2422C280.469 53.4818 280.391 53.6823 280.234 53.8438C280.083 54.0052 279.859 54.0859 279.562 54.0859C279.266 54.0859 279.042 54.0052 278.891 53.8438C278.745 53.6823 278.672 53.4818 278.672 53.2422Z"
    fill="black" />
  <rect x="364" y="37" width="29" height="22" rx="3" fill="#666666" />
  <path
    d="M374.234 47.8984H377.406V49.2656H374.234V52.8594H372.781V49.2656H369.609V47.8984H372.781V44.5781H374.234V47.8984ZM381.125 47.6094H382.211C382.893 47.599 383.43 47.4193 383.82 47.0703C384.211 46.7214 384.406 46.25 384.406 45.6562C384.406 44.3229 383.742 43.6562 382.414 43.6562C381.789 43.6562 381.289 43.8359 380.914 44.1953C380.544 44.5495 380.359 45.0208 380.359 45.6094H378.914C378.914 44.7083 379.242 43.9609 379.898 43.3672C380.56 42.7682 381.398 42.4688 382.414 42.4688C383.487 42.4688 384.328 42.7526 384.938 43.3203C385.547 43.888 385.852 44.6771 385.852 45.6875C385.852 46.1823 385.69 46.6615 385.367 47.125C385.049 47.5885 384.615 47.9349 384.062 48.1641C384.688 48.362 385.169 48.6901 385.508 49.1484C385.852 49.6068 386.023 50.1667 386.023 50.8281C386.023 51.849 385.69 52.6589 385.023 53.2578C384.357 53.8568 383.49 54.1562 382.422 54.1562C381.354 54.1562 380.484 53.8672 379.812 53.2891C379.146 52.7109 378.812 51.9479 378.812 51H380.266C380.266 51.599 380.461 52.0781 380.852 52.4375C381.242 52.7969 381.766 52.9766 382.422 52.9766C383.12 52.9766 383.654 52.7943 384.023 52.4297C384.393 52.0651 384.578 51.5417 384.578 50.8594C384.578 50.1979 384.375 49.6901 383.969 49.3359C383.562 48.9818 382.977 48.7995 382.211 48.7891H381.125V47.6094Z"
    fill="#F0F0F0" />
</svg>
